%TF.GenerationSoftware,KiCad,Pcbnew,9.0.0*%
%TF.CreationDate,2025-04-10T20:17:47-05:00*%
%TF.ProjectId,SN76489AN_soundboard1,534e3736-3438-4394-914e-5f736f756e64,rev?*%
%TF.SameCoordinates,Original*%
%TF.FileFunction,Legend,Top*%
%TF.FilePolarity,Positive*%
%FSLAX46Y46*%
G04 Gerber Fmt 4.6, Leading zero omitted, Abs format (unit mm)*
G04 Created by KiCad (PCBNEW 9.0.0) date 2025-04-10 20:17:47*
%MOMM*%
%LPD*%
G01*
G04 APERTURE LIST*
%ADD10C,0.300000*%
%ADD11C,0.150000*%
%ADD12C,0.120000*%
G04 APERTURE END LIST*
D10*
X62554510Y-31515114D02*
X62054510Y-31515114D01*
X62054510Y-32300828D02*
X62054510Y-30800828D01*
X62054510Y-30800828D02*
X62768796Y-30800828D01*
X63340224Y-31515114D02*
X63840224Y-31515114D01*
X64054510Y-32300828D02*
X63340224Y-32300828D01*
X63340224Y-32300828D02*
X63340224Y-30800828D01*
X63340224Y-30800828D02*
X64054510Y-30800828D01*
X65554510Y-32300828D02*
X65054510Y-31586542D01*
X64697367Y-32300828D02*
X64697367Y-30800828D01*
X64697367Y-30800828D02*
X65268796Y-30800828D01*
X65268796Y-30800828D02*
X65411653Y-30872257D01*
X65411653Y-30872257D02*
X65483082Y-30943685D01*
X65483082Y-30943685D02*
X65554510Y-31086542D01*
X65554510Y-31086542D02*
X65554510Y-31300828D01*
X65554510Y-31300828D02*
X65483082Y-31443685D01*
X65483082Y-31443685D02*
X65411653Y-31515114D01*
X65411653Y-31515114D02*
X65268796Y-31586542D01*
X65268796Y-31586542D02*
X64697367Y-31586542D01*
X66983082Y-30872257D02*
X66840225Y-30800828D01*
X66840225Y-30800828D02*
X66625939Y-30800828D01*
X66625939Y-30800828D02*
X66411653Y-30872257D01*
X66411653Y-30872257D02*
X66268796Y-31015114D01*
X66268796Y-31015114D02*
X66197367Y-31157971D01*
X66197367Y-31157971D02*
X66125939Y-31443685D01*
X66125939Y-31443685D02*
X66125939Y-31657971D01*
X66125939Y-31657971D02*
X66197367Y-31943685D01*
X66197367Y-31943685D02*
X66268796Y-32086542D01*
X66268796Y-32086542D02*
X66411653Y-32229400D01*
X66411653Y-32229400D02*
X66625939Y-32300828D01*
X66625939Y-32300828D02*
X66768796Y-32300828D01*
X66768796Y-32300828D02*
X66983082Y-32229400D01*
X66983082Y-32229400D02*
X67054510Y-32157971D01*
X67054510Y-32157971D02*
X67054510Y-31657971D01*
X67054510Y-31657971D02*
X66768796Y-31657971D01*
X67697367Y-30800828D02*
X67697367Y-32015114D01*
X67697367Y-32015114D02*
X67768796Y-32157971D01*
X67768796Y-32157971D02*
X67840225Y-32229400D01*
X67840225Y-32229400D02*
X67983082Y-32300828D01*
X67983082Y-32300828D02*
X68268796Y-32300828D01*
X68268796Y-32300828D02*
X68411653Y-32229400D01*
X68411653Y-32229400D02*
X68483082Y-32157971D01*
X68483082Y-32157971D02*
X68554510Y-32015114D01*
X68554510Y-32015114D02*
X68554510Y-30800828D01*
X69197368Y-32229400D02*
X69411654Y-32300828D01*
X69411654Y-32300828D02*
X69768796Y-32300828D01*
X69768796Y-32300828D02*
X69911654Y-32229400D01*
X69911654Y-32229400D02*
X69983082Y-32157971D01*
X69983082Y-32157971D02*
X70054511Y-32015114D01*
X70054511Y-32015114D02*
X70054511Y-31872257D01*
X70054511Y-31872257D02*
X69983082Y-31729400D01*
X69983082Y-31729400D02*
X69911654Y-31657971D01*
X69911654Y-31657971D02*
X69768796Y-31586542D01*
X69768796Y-31586542D02*
X69483082Y-31515114D01*
X69483082Y-31515114D02*
X69340225Y-31443685D01*
X69340225Y-31443685D02*
X69268796Y-31372257D01*
X69268796Y-31372257D02*
X69197368Y-31229400D01*
X69197368Y-31229400D02*
X69197368Y-31086542D01*
X69197368Y-31086542D02*
X69268796Y-30943685D01*
X69268796Y-30943685D02*
X69340225Y-30872257D01*
X69340225Y-30872257D02*
X69483082Y-30800828D01*
X69483082Y-30800828D02*
X69840225Y-30800828D01*
X69840225Y-30800828D02*
X70054511Y-30872257D01*
X70983082Y-30800828D02*
X71268796Y-30800828D01*
X71268796Y-30800828D02*
X71411653Y-30872257D01*
X71411653Y-30872257D02*
X71554510Y-31015114D01*
X71554510Y-31015114D02*
X71625939Y-31300828D01*
X71625939Y-31300828D02*
X71625939Y-31800828D01*
X71625939Y-31800828D02*
X71554510Y-32086542D01*
X71554510Y-32086542D02*
X71411653Y-32229400D01*
X71411653Y-32229400D02*
X71268796Y-32300828D01*
X71268796Y-32300828D02*
X70983082Y-32300828D01*
X70983082Y-32300828D02*
X70840225Y-32229400D01*
X70840225Y-32229400D02*
X70697367Y-32086542D01*
X70697367Y-32086542D02*
X70625939Y-31800828D01*
X70625939Y-31800828D02*
X70625939Y-31300828D01*
X70625939Y-31300828D02*
X70697367Y-31015114D01*
X70697367Y-31015114D02*
X70840225Y-30872257D01*
X70840225Y-30872257D02*
X70983082Y-30800828D01*
X72268796Y-32300828D02*
X72268796Y-30800828D01*
X72268796Y-30800828D02*
X73125939Y-32300828D01*
X73125939Y-32300828D02*
X73125939Y-30800828D01*
X74911654Y-32229400D02*
X75125940Y-32300828D01*
X75125940Y-32300828D02*
X75483082Y-32300828D01*
X75483082Y-32300828D02*
X75625940Y-32229400D01*
X75625940Y-32229400D02*
X75697368Y-32157971D01*
X75697368Y-32157971D02*
X75768797Y-32015114D01*
X75768797Y-32015114D02*
X75768797Y-31872257D01*
X75768797Y-31872257D02*
X75697368Y-31729400D01*
X75697368Y-31729400D02*
X75625940Y-31657971D01*
X75625940Y-31657971D02*
X75483082Y-31586542D01*
X75483082Y-31586542D02*
X75197368Y-31515114D01*
X75197368Y-31515114D02*
X75054511Y-31443685D01*
X75054511Y-31443685D02*
X74983082Y-31372257D01*
X74983082Y-31372257D02*
X74911654Y-31229400D01*
X74911654Y-31229400D02*
X74911654Y-31086542D01*
X74911654Y-31086542D02*
X74983082Y-30943685D01*
X74983082Y-30943685D02*
X75054511Y-30872257D01*
X75054511Y-30872257D02*
X75197368Y-30800828D01*
X75197368Y-30800828D02*
X75554511Y-30800828D01*
X75554511Y-30800828D02*
X75768797Y-30872257D01*
X76697368Y-30800828D02*
X76983082Y-30800828D01*
X76983082Y-30800828D02*
X77125939Y-30872257D01*
X77125939Y-30872257D02*
X77268796Y-31015114D01*
X77268796Y-31015114D02*
X77340225Y-31300828D01*
X77340225Y-31300828D02*
X77340225Y-31800828D01*
X77340225Y-31800828D02*
X77268796Y-32086542D01*
X77268796Y-32086542D02*
X77125939Y-32229400D01*
X77125939Y-32229400D02*
X76983082Y-32300828D01*
X76983082Y-32300828D02*
X76697368Y-32300828D01*
X76697368Y-32300828D02*
X76554511Y-32229400D01*
X76554511Y-32229400D02*
X76411653Y-32086542D01*
X76411653Y-32086542D02*
X76340225Y-31800828D01*
X76340225Y-31800828D02*
X76340225Y-31300828D01*
X76340225Y-31300828D02*
X76411653Y-31015114D01*
X76411653Y-31015114D02*
X76554511Y-30872257D01*
X76554511Y-30872257D02*
X76697368Y-30800828D01*
X77983082Y-30800828D02*
X77983082Y-32015114D01*
X77983082Y-32015114D02*
X78054511Y-32157971D01*
X78054511Y-32157971D02*
X78125940Y-32229400D01*
X78125940Y-32229400D02*
X78268797Y-32300828D01*
X78268797Y-32300828D02*
X78554511Y-32300828D01*
X78554511Y-32300828D02*
X78697368Y-32229400D01*
X78697368Y-32229400D02*
X78768797Y-32157971D01*
X78768797Y-32157971D02*
X78840225Y-32015114D01*
X78840225Y-32015114D02*
X78840225Y-30800828D01*
X79554511Y-32300828D02*
X79554511Y-30800828D01*
X79554511Y-30800828D02*
X80411654Y-32300828D01*
X80411654Y-32300828D02*
X80411654Y-30800828D01*
X81125940Y-32300828D02*
X81125940Y-30800828D01*
X81125940Y-30800828D02*
X81483083Y-30800828D01*
X81483083Y-30800828D02*
X81697369Y-30872257D01*
X81697369Y-30872257D02*
X81840226Y-31015114D01*
X81840226Y-31015114D02*
X81911655Y-31157971D01*
X81911655Y-31157971D02*
X81983083Y-31443685D01*
X81983083Y-31443685D02*
X81983083Y-31657971D01*
X81983083Y-31657971D02*
X81911655Y-31943685D01*
X81911655Y-31943685D02*
X81840226Y-32086542D01*
X81840226Y-32086542D02*
X81697369Y-32229400D01*
X81697369Y-32229400D02*
X81483083Y-32300828D01*
X81483083Y-32300828D02*
X81125940Y-32300828D01*
D11*
X126666666Y-63124819D02*
X126666666Y-63839104D01*
X126666666Y-63839104D02*
X126619047Y-63981961D01*
X126619047Y-63981961D02*
X126523809Y-64077200D01*
X126523809Y-64077200D02*
X126380952Y-64124819D01*
X126380952Y-64124819D02*
X126285714Y-64124819D01*
X127571428Y-63458152D02*
X127571428Y-64124819D01*
X127333333Y-63077200D02*
X127095238Y-63791485D01*
X127095238Y-63791485D02*
X127714285Y-63791485D01*
X124619047Y-67784819D02*
X124952380Y-68784819D01*
X124952380Y-68784819D02*
X125285713Y-67784819D01*
X125619047Y-67784819D02*
X125619047Y-68594342D01*
X125619047Y-68594342D02*
X125666666Y-68689580D01*
X125666666Y-68689580D02*
X125714285Y-68737200D01*
X125714285Y-68737200D02*
X125809523Y-68784819D01*
X125809523Y-68784819D02*
X125999999Y-68784819D01*
X125999999Y-68784819D02*
X126095237Y-68737200D01*
X126095237Y-68737200D02*
X126142856Y-68689580D01*
X126142856Y-68689580D02*
X126190475Y-68594342D01*
X126190475Y-68594342D02*
X126190475Y-67784819D01*
X126428571Y-68880057D02*
X127190475Y-68880057D01*
X127428571Y-68261009D02*
X127761904Y-68261009D01*
X127904761Y-68784819D02*
X127428571Y-68784819D01*
X127428571Y-68784819D02*
X127428571Y-67784819D01*
X127428571Y-67784819D02*
X127904761Y-67784819D01*
X128238095Y-68784819D02*
X128761904Y-68118152D01*
X128238095Y-68118152D02*
X128761904Y-68784819D01*
X129000000Y-68118152D02*
X129380952Y-68118152D01*
X129142857Y-67784819D02*
X129142857Y-68641961D01*
X129142857Y-68641961D02*
X129190476Y-68737200D01*
X129190476Y-68737200D02*
X129285714Y-68784819D01*
X129285714Y-68784819D02*
X129380952Y-68784819D01*
X70403809Y-52428628D02*
X70403809Y-52904819D01*
X70070476Y-51904819D02*
X70403809Y-52428628D01*
X70403809Y-52428628D02*
X70737142Y-51904819D01*
X71594285Y-52904819D02*
X71022857Y-52904819D01*
X71308571Y-52904819D02*
X71308571Y-51904819D01*
X71308571Y-51904819D02*
X71213333Y-52047676D01*
X71213333Y-52047676D02*
X71118095Y-52142914D01*
X71118095Y-52142914D02*
X71022857Y-52190533D01*
X119666666Y-30469819D02*
X119666666Y-31184104D01*
X119666666Y-31184104D02*
X119619047Y-31326961D01*
X119619047Y-31326961D02*
X119523809Y-31422200D01*
X119523809Y-31422200D02*
X119380952Y-31469819D01*
X119380952Y-31469819D02*
X119285714Y-31469819D01*
X120142857Y-31469819D02*
X120142857Y-30469819D01*
X120142857Y-30469819D02*
X120523809Y-30469819D01*
X120523809Y-30469819D02*
X120619047Y-30517438D01*
X120619047Y-30517438D02*
X120666666Y-30565057D01*
X120666666Y-30565057D02*
X120714285Y-30660295D01*
X120714285Y-30660295D02*
X120714285Y-30803152D01*
X120714285Y-30803152D02*
X120666666Y-30898390D01*
X120666666Y-30898390D02*
X120619047Y-30946009D01*
X120619047Y-30946009D02*
X120523809Y-30993628D01*
X120523809Y-30993628D02*
X120142857Y-30993628D01*
X121095238Y-30565057D02*
X121142857Y-30517438D01*
X121142857Y-30517438D02*
X121238095Y-30469819D01*
X121238095Y-30469819D02*
X121476190Y-30469819D01*
X121476190Y-30469819D02*
X121571428Y-30517438D01*
X121571428Y-30517438D02*
X121619047Y-30565057D01*
X121619047Y-30565057D02*
X121666666Y-30660295D01*
X121666666Y-30660295D02*
X121666666Y-30755533D01*
X121666666Y-30755533D02*
X121619047Y-30898390D01*
X121619047Y-30898390D02*
X121047619Y-31469819D01*
X121047619Y-31469819D02*
X121666666Y-31469819D01*
X114357143Y-39954819D02*
X114690476Y-40954819D01*
X114690476Y-40954819D02*
X115023809Y-39954819D01*
X115357143Y-39954819D02*
X115357143Y-40764342D01*
X115357143Y-40764342D02*
X115404762Y-40859580D01*
X115404762Y-40859580D02*
X115452381Y-40907200D01*
X115452381Y-40907200D02*
X115547619Y-40954819D01*
X115547619Y-40954819D02*
X115738095Y-40954819D01*
X115738095Y-40954819D02*
X115833333Y-40907200D01*
X115833333Y-40907200D02*
X115880952Y-40859580D01*
X115880952Y-40859580D02*
X115928571Y-40764342D01*
X115928571Y-40764342D02*
X115928571Y-39954819D01*
X116166667Y-41050057D02*
X116928571Y-41050057D01*
X117166667Y-40954819D02*
X117166667Y-39954819D01*
X117166667Y-39954819D02*
X117500000Y-40669104D01*
X117500000Y-40669104D02*
X117833333Y-39954819D01*
X117833333Y-39954819D02*
X117833333Y-40954819D01*
X118452381Y-40954819D02*
X118357143Y-40907200D01*
X118357143Y-40907200D02*
X118309524Y-40859580D01*
X118309524Y-40859580D02*
X118261905Y-40764342D01*
X118261905Y-40764342D02*
X118261905Y-40478628D01*
X118261905Y-40478628D02*
X118309524Y-40383390D01*
X118309524Y-40383390D02*
X118357143Y-40335771D01*
X118357143Y-40335771D02*
X118452381Y-40288152D01*
X118452381Y-40288152D02*
X118595238Y-40288152D01*
X118595238Y-40288152D02*
X118690476Y-40335771D01*
X118690476Y-40335771D02*
X118738095Y-40383390D01*
X118738095Y-40383390D02*
X118785714Y-40478628D01*
X118785714Y-40478628D02*
X118785714Y-40764342D01*
X118785714Y-40764342D02*
X118738095Y-40859580D01*
X118738095Y-40859580D02*
X118690476Y-40907200D01*
X118690476Y-40907200D02*
X118595238Y-40954819D01*
X118595238Y-40954819D02*
X118452381Y-40954819D01*
X119642857Y-40954819D02*
X119642857Y-39954819D01*
X119642857Y-40907200D02*
X119547619Y-40954819D01*
X119547619Y-40954819D02*
X119357143Y-40954819D01*
X119357143Y-40954819D02*
X119261905Y-40907200D01*
X119261905Y-40907200D02*
X119214286Y-40859580D01*
X119214286Y-40859580D02*
X119166667Y-40764342D01*
X119166667Y-40764342D02*
X119166667Y-40478628D01*
X119166667Y-40478628D02*
X119214286Y-40383390D01*
X119214286Y-40383390D02*
X119261905Y-40335771D01*
X119261905Y-40335771D02*
X119357143Y-40288152D01*
X119357143Y-40288152D02*
X119547619Y-40288152D01*
X119547619Y-40288152D02*
X119642857Y-40335771D01*
X120500000Y-40907200D02*
X120404762Y-40954819D01*
X120404762Y-40954819D02*
X120214286Y-40954819D01*
X120214286Y-40954819D02*
X120119048Y-40907200D01*
X120119048Y-40907200D02*
X120071429Y-40811961D01*
X120071429Y-40811961D02*
X120071429Y-40431009D01*
X120071429Y-40431009D02*
X120119048Y-40335771D01*
X120119048Y-40335771D02*
X120214286Y-40288152D01*
X120214286Y-40288152D02*
X120404762Y-40288152D01*
X120404762Y-40288152D02*
X120500000Y-40335771D01*
X120500000Y-40335771D02*
X120547619Y-40431009D01*
X120547619Y-40431009D02*
X120547619Y-40526247D01*
X120547619Y-40526247D02*
X120071429Y-40621485D01*
X103753333Y-95454819D02*
X103420000Y-94978628D01*
X103181905Y-95454819D02*
X103181905Y-94454819D01*
X103181905Y-94454819D02*
X103562857Y-94454819D01*
X103562857Y-94454819D02*
X103658095Y-94502438D01*
X103658095Y-94502438D02*
X103705714Y-94550057D01*
X103705714Y-94550057D02*
X103753333Y-94645295D01*
X103753333Y-94645295D02*
X103753333Y-94788152D01*
X103753333Y-94788152D02*
X103705714Y-94883390D01*
X103705714Y-94883390D02*
X103658095Y-94931009D01*
X103658095Y-94931009D02*
X103562857Y-94978628D01*
X103562857Y-94978628D02*
X103181905Y-94978628D01*
X104086667Y-94454819D02*
X104705714Y-94454819D01*
X104705714Y-94454819D02*
X104372381Y-94835771D01*
X104372381Y-94835771D02*
X104515238Y-94835771D01*
X104515238Y-94835771D02*
X104610476Y-94883390D01*
X104610476Y-94883390D02*
X104658095Y-94931009D01*
X104658095Y-94931009D02*
X104705714Y-95026247D01*
X104705714Y-95026247D02*
X104705714Y-95264342D01*
X104705714Y-95264342D02*
X104658095Y-95359580D01*
X104658095Y-95359580D02*
X104610476Y-95407200D01*
X104610476Y-95407200D02*
X104515238Y-95454819D01*
X104515238Y-95454819D02*
X104229524Y-95454819D01*
X104229524Y-95454819D02*
X104134286Y-95407200D01*
X104134286Y-95407200D02*
X104086667Y-95359580D01*
X73785238Y-45454819D02*
X73690000Y-45407200D01*
X73690000Y-45407200D02*
X73642381Y-45359580D01*
X73642381Y-45359580D02*
X73594762Y-45264342D01*
X73594762Y-45264342D02*
X73594762Y-44978628D01*
X73594762Y-44978628D02*
X73642381Y-44883390D01*
X73642381Y-44883390D02*
X73690000Y-44835771D01*
X73690000Y-44835771D02*
X73785238Y-44788152D01*
X73785238Y-44788152D02*
X73928095Y-44788152D01*
X73928095Y-44788152D02*
X74023333Y-44835771D01*
X74023333Y-44835771D02*
X74070952Y-44883390D01*
X74070952Y-44883390D02*
X74118571Y-44978628D01*
X74118571Y-44978628D02*
X74118571Y-45264342D01*
X74118571Y-45264342D02*
X74070952Y-45359580D01*
X74070952Y-45359580D02*
X74023333Y-45407200D01*
X74023333Y-45407200D02*
X73928095Y-45454819D01*
X73928095Y-45454819D02*
X73785238Y-45454819D01*
X74499524Y-45407200D02*
X74594762Y-45454819D01*
X74594762Y-45454819D02*
X74785238Y-45454819D01*
X74785238Y-45454819D02*
X74880476Y-45407200D01*
X74880476Y-45407200D02*
X74928095Y-45311961D01*
X74928095Y-45311961D02*
X74928095Y-45264342D01*
X74928095Y-45264342D02*
X74880476Y-45169104D01*
X74880476Y-45169104D02*
X74785238Y-45121485D01*
X74785238Y-45121485D02*
X74642381Y-45121485D01*
X74642381Y-45121485D02*
X74547143Y-45073866D01*
X74547143Y-45073866D02*
X74499524Y-44978628D01*
X74499524Y-44978628D02*
X74499524Y-44931009D01*
X74499524Y-44931009D02*
X74547143Y-44835771D01*
X74547143Y-44835771D02*
X74642381Y-44788152D01*
X74642381Y-44788152D02*
X74785238Y-44788152D01*
X74785238Y-44788152D02*
X74880476Y-44835771D01*
X75785238Y-45407200D02*
X75690000Y-45454819D01*
X75690000Y-45454819D02*
X75499524Y-45454819D01*
X75499524Y-45454819D02*
X75404286Y-45407200D01*
X75404286Y-45407200D02*
X75356667Y-45359580D01*
X75356667Y-45359580D02*
X75309048Y-45264342D01*
X75309048Y-45264342D02*
X75309048Y-44978628D01*
X75309048Y-44978628D02*
X75356667Y-44883390D01*
X75356667Y-44883390D02*
X75404286Y-44835771D01*
X75404286Y-44835771D02*
X75499524Y-44788152D01*
X75499524Y-44788152D02*
X75690000Y-44788152D01*
X75690000Y-44788152D02*
X75785238Y-44835771D01*
X93333333Y-88859580D02*
X93285714Y-88907200D01*
X93285714Y-88907200D02*
X93142857Y-88954819D01*
X93142857Y-88954819D02*
X93047619Y-88954819D01*
X93047619Y-88954819D02*
X92904762Y-88907200D01*
X92904762Y-88907200D02*
X92809524Y-88811961D01*
X92809524Y-88811961D02*
X92761905Y-88716723D01*
X92761905Y-88716723D02*
X92714286Y-88526247D01*
X92714286Y-88526247D02*
X92714286Y-88383390D01*
X92714286Y-88383390D02*
X92761905Y-88192914D01*
X92761905Y-88192914D02*
X92809524Y-88097676D01*
X92809524Y-88097676D02*
X92904762Y-88002438D01*
X92904762Y-88002438D02*
X93047619Y-87954819D01*
X93047619Y-87954819D02*
X93142857Y-87954819D01*
X93142857Y-87954819D02*
X93285714Y-88002438D01*
X93285714Y-88002438D02*
X93333333Y-88050057D01*
X93666667Y-87954819D02*
X94285714Y-87954819D01*
X94285714Y-87954819D02*
X93952381Y-88335771D01*
X93952381Y-88335771D02*
X94095238Y-88335771D01*
X94095238Y-88335771D02*
X94190476Y-88383390D01*
X94190476Y-88383390D02*
X94238095Y-88431009D01*
X94238095Y-88431009D02*
X94285714Y-88526247D01*
X94285714Y-88526247D02*
X94285714Y-88764342D01*
X94285714Y-88764342D02*
X94238095Y-88859580D01*
X94238095Y-88859580D02*
X94190476Y-88907200D01*
X94190476Y-88907200D02*
X94095238Y-88954819D01*
X94095238Y-88954819D02*
X93809524Y-88954819D01*
X93809524Y-88954819D02*
X93714286Y-88907200D01*
X93714286Y-88907200D02*
X93666667Y-88859580D01*
X88669931Y-45256904D02*
X89479454Y-45256904D01*
X89479454Y-45256904D02*
X89574692Y-45209285D01*
X89574692Y-45209285D02*
X89622312Y-45161666D01*
X89622312Y-45161666D02*
X89669931Y-45066428D01*
X89669931Y-45066428D02*
X89669931Y-44875952D01*
X89669931Y-44875952D02*
X89622312Y-44780714D01*
X89622312Y-44780714D02*
X89574692Y-44733095D01*
X89574692Y-44733095D02*
X89479454Y-44685476D01*
X89479454Y-44685476D02*
X88669931Y-44685476D01*
X88765169Y-44256904D02*
X88717550Y-44209285D01*
X88717550Y-44209285D02*
X88669931Y-44114047D01*
X88669931Y-44114047D02*
X88669931Y-43875952D01*
X88669931Y-43875952D02*
X88717550Y-43780714D01*
X88717550Y-43780714D02*
X88765169Y-43733095D01*
X88765169Y-43733095D02*
X88860407Y-43685476D01*
X88860407Y-43685476D02*
X88955645Y-43685476D01*
X88955645Y-43685476D02*
X89098502Y-43733095D01*
X89098502Y-43733095D02*
X89669931Y-44304523D01*
X89669931Y-44304523D02*
X89669931Y-43685476D01*
X114954819Y-39214285D02*
X113954819Y-39214285D01*
X113954819Y-39214285D02*
X113954819Y-38976190D01*
X113954819Y-38976190D02*
X114002438Y-38833333D01*
X114002438Y-38833333D02*
X114097676Y-38738095D01*
X114097676Y-38738095D02*
X114192914Y-38690476D01*
X114192914Y-38690476D02*
X114383390Y-38642857D01*
X114383390Y-38642857D02*
X114526247Y-38642857D01*
X114526247Y-38642857D02*
X114716723Y-38690476D01*
X114716723Y-38690476D02*
X114811961Y-38738095D01*
X114811961Y-38738095D02*
X114907200Y-38833333D01*
X114907200Y-38833333D02*
X114954819Y-38976190D01*
X114954819Y-38976190D02*
X114954819Y-39214285D01*
X114954819Y-37690476D02*
X114954819Y-38261904D01*
X114954819Y-37976190D02*
X113954819Y-37976190D01*
X113954819Y-37976190D02*
X114097676Y-38071428D01*
X114097676Y-38071428D02*
X114192914Y-38166666D01*
X114192914Y-38166666D02*
X114240533Y-38261904D01*
X113954819Y-37071428D02*
X113954819Y-36976190D01*
X113954819Y-36976190D02*
X114002438Y-36880952D01*
X114002438Y-36880952D02*
X114050057Y-36833333D01*
X114050057Y-36833333D02*
X114145295Y-36785714D01*
X114145295Y-36785714D02*
X114335771Y-36738095D01*
X114335771Y-36738095D02*
X114573866Y-36738095D01*
X114573866Y-36738095D02*
X114764342Y-36785714D01*
X114764342Y-36785714D02*
X114859580Y-36833333D01*
X114859580Y-36833333D02*
X114907200Y-36880952D01*
X114907200Y-36880952D02*
X114954819Y-36976190D01*
X114954819Y-36976190D02*
X114954819Y-37071428D01*
X114954819Y-37071428D02*
X114907200Y-37166666D01*
X114907200Y-37166666D02*
X114859580Y-37214285D01*
X114859580Y-37214285D02*
X114764342Y-37261904D01*
X114764342Y-37261904D02*
X114573866Y-37309523D01*
X114573866Y-37309523D02*
X114335771Y-37309523D01*
X114335771Y-37309523D02*
X114145295Y-37261904D01*
X114145295Y-37261904D02*
X114050057Y-37214285D01*
X114050057Y-37214285D02*
X114002438Y-37166666D01*
X114002438Y-37166666D02*
X113954819Y-37071428D01*
X102144819Y-88261904D02*
X102954342Y-88261904D01*
X102954342Y-88261904D02*
X103049580Y-88214285D01*
X103049580Y-88214285D02*
X103097200Y-88166666D01*
X103097200Y-88166666D02*
X103144819Y-88071428D01*
X103144819Y-88071428D02*
X103144819Y-87880952D01*
X103144819Y-87880952D02*
X103097200Y-87785714D01*
X103097200Y-87785714D02*
X103049580Y-87738095D01*
X103049580Y-87738095D02*
X102954342Y-87690476D01*
X102954342Y-87690476D02*
X102144819Y-87690476D01*
X103144819Y-86690476D02*
X103144819Y-87261904D01*
X103144819Y-86976190D02*
X102144819Y-86976190D01*
X102144819Y-86976190D02*
X102287676Y-87071428D01*
X102287676Y-87071428D02*
X102382914Y-87166666D01*
X102382914Y-87166666D02*
X102430533Y-87261904D01*
X104644819Y-89190476D02*
X104644819Y-89666666D01*
X104644819Y-89666666D02*
X103644819Y-89666666D01*
X104644819Y-88857142D02*
X103644819Y-88857142D01*
X103644819Y-88857142D02*
X104359104Y-88523809D01*
X104359104Y-88523809D02*
X103644819Y-88190476D01*
X103644819Y-88190476D02*
X104644819Y-88190476D01*
X103644819Y-87809523D02*
X103644819Y-87190476D01*
X103644819Y-87190476D02*
X104025771Y-87523809D01*
X104025771Y-87523809D02*
X104025771Y-87380952D01*
X104025771Y-87380952D02*
X104073390Y-87285714D01*
X104073390Y-87285714D02*
X104121009Y-87238095D01*
X104121009Y-87238095D02*
X104216247Y-87190476D01*
X104216247Y-87190476D02*
X104454342Y-87190476D01*
X104454342Y-87190476D02*
X104549580Y-87238095D01*
X104549580Y-87238095D02*
X104597200Y-87285714D01*
X104597200Y-87285714D02*
X104644819Y-87380952D01*
X104644819Y-87380952D02*
X104644819Y-87666666D01*
X104644819Y-87666666D02*
X104597200Y-87761904D01*
X104597200Y-87761904D02*
X104549580Y-87809523D01*
X104073390Y-86619047D02*
X104025771Y-86714285D01*
X104025771Y-86714285D02*
X103978152Y-86761904D01*
X103978152Y-86761904D02*
X103882914Y-86809523D01*
X103882914Y-86809523D02*
X103835295Y-86809523D01*
X103835295Y-86809523D02*
X103740057Y-86761904D01*
X103740057Y-86761904D02*
X103692438Y-86714285D01*
X103692438Y-86714285D02*
X103644819Y-86619047D01*
X103644819Y-86619047D02*
X103644819Y-86428571D01*
X103644819Y-86428571D02*
X103692438Y-86333333D01*
X103692438Y-86333333D02*
X103740057Y-86285714D01*
X103740057Y-86285714D02*
X103835295Y-86238095D01*
X103835295Y-86238095D02*
X103882914Y-86238095D01*
X103882914Y-86238095D02*
X103978152Y-86285714D01*
X103978152Y-86285714D02*
X104025771Y-86333333D01*
X104025771Y-86333333D02*
X104073390Y-86428571D01*
X104073390Y-86428571D02*
X104073390Y-86619047D01*
X104073390Y-86619047D02*
X104121009Y-86714285D01*
X104121009Y-86714285D02*
X104168628Y-86761904D01*
X104168628Y-86761904D02*
X104263866Y-86809523D01*
X104263866Y-86809523D02*
X104454342Y-86809523D01*
X104454342Y-86809523D02*
X104549580Y-86761904D01*
X104549580Y-86761904D02*
X104597200Y-86714285D01*
X104597200Y-86714285D02*
X104644819Y-86619047D01*
X104644819Y-86619047D02*
X104644819Y-86428571D01*
X104644819Y-86428571D02*
X104597200Y-86333333D01*
X104597200Y-86333333D02*
X104549580Y-86285714D01*
X104549580Y-86285714D02*
X104454342Y-86238095D01*
X104454342Y-86238095D02*
X104263866Y-86238095D01*
X104263866Y-86238095D02*
X104168628Y-86285714D01*
X104168628Y-86285714D02*
X104121009Y-86333333D01*
X104121009Y-86333333D02*
X104073390Y-86428571D01*
X103644819Y-85380952D02*
X103644819Y-85571428D01*
X103644819Y-85571428D02*
X103692438Y-85666666D01*
X103692438Y-85666666D02*
X103740057Y-85714285D01*
X103740057Y-85714285D02*
X103882914Y-85809523D01*
X103882914Y-85809523D02*
X104073390Y-85857142D01*
X104073390Y-85857142D02*
X104454342Y-85857142D01*
X104454342Y-85857142D02*
X104549580Y-85809523D01*
X104549580Y-85809523D02*
X104597200Y-85761904D01*
X104597200Y-85761904D02*
X104644819Y-85666666D01*
X104644819Y-85666666D02*
X104644819Y-85476190D01*
X104644819Y-85476190D02*
X104597200Y-85380952D01*
X104597200Y-85380952D02*
X104549580Y-85333333D01*
X104549580Y-85333333D02*
X104454342Y-85285714D01*
X104454342Y-85285714D02*
X104216247Y-85285714D01*
X104216247Y-85285714D02*
X104121009Y-85333333D01*
X104121009Y-85333333D02*
X104073390Y-85380952D01*
X104073390Y-85380952D02*
X104025771Y-85476190D01*
X104025771Y-85476190D02*
X104025771Y-85666666D01*
X104025771Y-85666666D02*
X104073390Y-85761904D01*
X104073390Y-85761904D02*
X104121009Y-85809523D01*
X104121009Y-85809523D02*
X104216247Y-85857142D01*
X99205714Y-52454819D02*
X99205714Y-51454819D01*
X99205714Y-51454819D02*
X99443809Y-51454819D01*
X99443809Y-51454819D02*
X99586666Y-51502438D01*
X99586666Y-51502438D02*
X99681904Y-51597676D01*
X99681904Y-51597676D02*
X99729523Y-51692914D01*
X99729523Y-51692914D02*
X99777142Y-51883390D01*
X99777142Y-51883390D02*
X99777142Y-52026247D01*
X99777142Y-52026247D02*
X99729523Y-52216723D01*
X99729523Y-52216723D02*
X99681904Y-52311961D01*
X99681904Y-52311961D02*
X99586666Y-52407200D01*
X99586666Y-52407200D02*
X99443809Y-52454819D01*
X99443809Y-52454819D02*
X99205714Y-52454819D01*
X100729523Y-52454819D02*
X100158095Y-52454819D01*
X100443809Y-52454819D02*
X100443809Y-51454819D01*
X100443809Y-51454819D02*
X100348571Y-51597676D01*
X100348571Y-51597676D02*
X100253333Y-51692914D01*
X100253333Y-51692914D02*
X100158095Y-51740533D01*
X101681904Y-52454819D02*
X101110476Y-52454819D01*
X101396190Y-52454819D02*
X101396190Y-51454819D01*
X101396190Y-51454819D02*
X101300952Y-51597676D01*
X101300952Y-51597676D02*
X101205714Y-51692914D01*
X101205714Y-51692914D02*
X101110476Y-51740533D01*
X95158095Y-50354819D02*
X95158095Y-49354819D01*
X95729523Y-50354819D02*
X95300952Y-49783390D01*
X95729523Y-49354819D02*
X95158095Y-49926247D01*
X105833333Y-66954819D02*
X105500000Y-66478628D01*
X105261905Y-66954819D02*
X105261905Y-65954819D01*
X105261905Y-65954819D02*
X105642857Y-65954819D01*
X105642857Y-65954819D02*
X105738095Y-66002438D01*
X105738095Y-66002438D02*
X105785714Y-66050057D01*
X105785714Y-66050057D02*
X105833333Y-66145295D01*
X105833333Y-66145295D02*
X105833333Y-66288152D01*
X105833333Y-66288152D02*
X105785714Y-66383390D01*
X105785714Y-66383390D02*
X105738095Y-66431009D01*
X105738095Y-66431009D02*
X105642857Y-66478628D01*
X105642857Y-66478628D02*
X105261905Y-66478628D01*
X106214286Y-66050057D02*
X106261905Y-66002438D01*
X106261905Y-66002438D02*
X106357143Y-65954819D01*
X106357143Y-65954819D02*
X106595238Y-65954819D01*
X106595238Y-65954819D02*
X106690476Y-66002438D01*
X106690476Y-66002438D02*
X106738095Y-66050057D01*
X106738095Y-66050057D02*
X106785714Y-66145295D01*
X106785714Y-66145295D02*
X106785714Y-66240533D01*
X106785714Y-66240533D02*
X106738095Y-66383390D01*
X106738095Y-66383390D02*
X106166667Y-66954819D01*
X106166667Y-66954819D02*
X106785714Y-66954819D01*
X125166666Y-31454819D02*
X125166666Y-32169104D01*
X125166666Y-32169104D02*
X125119047Y-32311961D01*
X125119047Y-32311961D02*
X125023809Y-32407200D01*
X125023809Y-32407200D02*
X124880952Y-32454819D01*
X124880952Y-32454819D02*
X124785714Y-32454819D01*
X125547619Y-31454819D02*
X126166666Y-31454819D01*
X126166666Y-31454819D02*
X125833333Y-31835771D01*
X125833333Y-31835771D02*
X125976190Y-31835771D01*
X125976190Y-31835771D02*
X126071428Y-31883390D01*
X126071428Y-31883390D02*
X126119047Y-31931009D01*
X126119047Y-31931009D02*
X126166666Y-32026247D01*
X126166666Y-32026247D02*
X126166666Y-32264342D01*
X126166666Y-32264342D02*
X126119047Y-32359580D01*
X126119047Y-32359580D02*
X126071428Y-32407200D01*
X126071428Y-32407200D02*
X125976190Y-32454819D01*
X125976190Y-32454819D02*
X125690476Y-32454819D01*
X125690476Y-32454819D02*
X125595238Y-32407200D01*
X125595238Y-32407200D02*
X125547619Y-32359580D01*
X103833333Y-76859580D02*
X103785714Y-76907200D01*
X103785714Y-76907200D02*
X103642857Y-76954819D01*
X103642857Y-76954819D02*
X103547619Y-76954819D01*
X103547619Y-76954819D02*
X103404762Y-76907200D01*
X103404762Y-76907200D02*
X103309524Y-76811961D01*
X103309524Y-76811961D02*
X103261905Y-76716723D01*
X103261905Y-76716723D02*
X103214286Y-76526247D01*
X103214286Y-76526247D02*
X103214286Y-76383390D01*
X103214286Y-76383390D02*
X103261905Y-76192914D01*
X103261905Y-76192914D02*
X103309524Y-76097676D01*
X103309524Y-76097676D02*
X103404762Y-76002438D01*
X103404762Y-76002438D02*
X103547619Y-75954819D01*
X103547619Y-75954819D02*
X103642857Y-75954819D01*
X103642857Y-75954819D02*
X103785714Y-76002438D01*
X103785714Y-76002438D02*
X103833333Y-76050057D01*
X104690476Y-75954819D02*
X104500000Y-75954819D01*
X104500000Y-75954819D02*
X104404762Y-76002438D01*
X104404762Y-76002438D02*
X104357143Y-76050057D01*
X104357143Y-76050057D02*
X104261905Y-76192914D01*
X104261905Y-76192914D02*
X104214286Y-76383390D01*
X104214286Y-76383390D02*
X104214286Y-76764342D01*
X104214286Y-76764342D02*
X104261905Y-76859580D01*
X104261905Y-76859580D02*
X104309524Y-76907200D01*
X104309524Y-76907200D02*
X104404762Y-76954819D01*
X104404762Y-76954819D02*
X104595238Y-76954819D01*
X104595238Y-76954819D02*
X104690476Y-76907200D01*
X104690476Y-76907200D02*
X104738095Y-76859580D01*
X104738095Y-76859580D02*
X104785714Y-76764342D01*
X104785714Y-76764342D02*
X104785714Y-76526247D01*
X104785714Y-76526247D02*
X104738095Y-76431009D01*
X104738095Y-76431009D02*
X104690476Y-76383390D01*
X104690476Y-76383390D02*
X104595238Y-76335771D01*
X104595238Y-76335771D02*
X104404762Y-76335771D01*
X104404762Y-76335771D02*
X104309524Y-76383390D01*
X104309524Y-76383390D02*
X104261905Y-76431009D01*
X104261905Y-76431009D02*
X104214286Y-76526247D01*
X92833333Y-83859580D02*
X92785714Y-83907200D01*
X92785714Y-83907200D02*
X92642857Y-83954819D01*
X92642857Y-83954819D02*
X92547619Y-83954819D01*
X92547619Y-83954819D02*
X92404762Y-83907200D01*
X92404762Y-83907200D02*
X92309524Y-83811961D01*
X92309524Y-83811961D02*
X92261905Y-83716723D01*
X92261905Y-83716723D02*
X92214286Y-83526247D01*
X92214286Y-83526247D02*
X92214286Y-83383390D01*
X92214286Y-83383390D02*
X92261905Y-83192914D01*
X92261905Y-83192914D02*
X92309524Y-83097676D01*
X92309524Y-83097676D02*
X92404762Y-83002438D01*
X92404762Y-83002438D02*
X92547619Y-82954819D01*
X92547619Y-82954819D02*
X92642857Y-82954819D01*
X92642857Y-82954819D02*
X92785714Y-83002438D01*
X92785714Y-83002438D02*
X92833333Y-83050057D01*
X93690476Y-83288152D02*
X93690476Y-83954819D01*
X93452381Y-82907200D02*
X93214286Y-83621485D01*
X93214286Y-83621485D02*
X93833333Y-83621485D01*
X95333333Y-79359580D02*
X95285714Y-79407200D01*
X95285714Y-79407200D02*
X95142857Y-79454819D01*
X95142857Y-79454819D02*
X95047619Y-79454819D01*
X95047619Y-79454819D02*
X94904762Y-79407200D01*
X94904762Y-79407200D02*
X94809524Y-79311961D01*
X94809524Y-79311961D02*
X94761905Y-79216723D01*
X94761905Y-79216723D02*
X94714286Y-79026247D01*
X94714286Y-79026247D02*
X94714286Y-78883390D01*
X94714286Y-78883390D02*
X94761905Y-78692914D01*
X94761905Y-78692914D02*
X94809524Y-78597676D01*
X94809524Y-78597676D02*
X94904762Y-78502438D01*
X94904762Y-78502438D02*
X95047619Y-78454819D01*
X95047619Y-78454819D02*
X95142857Y-78454819D01*
X95142857Y-78454819D02*
X95285714Y-78502438D01*
X95285714Y-78502438D02*
X95333333Y-78550057D01*
X95714286Y-78550057D02*
X95761905Y-78502438D01*
X95761905Y-78502438D02*
X95857143Y-78454819D01*
X95857143Y-78454819D02*
X96095238Y-78454819D01*
X96095238Y-78454819D02*
X96190476Y-78502438D01*
X96190476Y-78502438D02*
X96238095Y-78550057D01*
X96238095Y-78550057D02*
X96285714Y-78645295D01*
X96285714Y-78645295D02*
X96285714Y-78740533D01*
X96285714Y-78740533D02*
X96238095Y-78883390D01*
X96238095Y-78883390D02*
X95666667Y-79454819D01*
X95666667Y-79454819D02*
X96285714Y-79454819D01*
X93894819Y-38238094D02*
X92894819Y-38238094D01*
X92894819Y-38238094D02*
X92894819Y-37999999D01*
X92894819Y-37999999D02*
X92942438Y-37857142D01*
X92942438Y-37857142D02*
X93037676Y-37761904D01*
X93037676Y-37761904D02*
X93132914Y-37714285D01*
X93132914Y-37714285D02*
X93323390Y-37666666D01*
X93323390Y-37666666D02*
X93466247Y-37666666D01*
X93466247Y-37666666D02*
X93656723Y-37714285D01*
X93656723Y-37714285D02*
X93751961Y-37761904D01*
X93751961Y-37761904D02*
X93847200Y-37857142D01*
X93847200Y-37857142D02*
X93894819Y-37999999D01*
X93894819Y-37999999D02*
X93894819Y-38238094D01*
X92894819Y-37333332D02*
X92894819Y-36714285D01*
X92894819Y-36714285D02*
X93275771Y-37047618D01*
X93275771Y-37047618D02*
X93275771Y-36904761D01*
X93275771Y-36904761D02*
X93323390Y-36809523D01*
X93323390Y-36809523D02*
X93371009Y-36761904D01*
X93371009Y-36761904D02*
X93466247Y-36714285D01*
X93466247Y-36714285D02*
X93704342Y-36714285D01*
X93704342Y-36714285D02*
X93799580Y-36761904D01*
X93799580Y-36761904D02*
X93847200Y-36809523D01*
X93847200Y-36809523D02*
X93894819Y-36904761D01*
X93894819Y-36904761D02*
X93894819Y-37190475D01*
X93894819Y-37190475D02*
X93847200Y-37285713D01*
X93847200Y-37285713D02*
X93799580Y-37333332D01*
X101738095Y-60454819D02*
X101738095Y-61264342D01*
X101738095Y-61264342D02*
X101785714Y-61359580D01*
X101785714Y-61359580D02*
X101833333Y-61407200D01*
X101833333Y-61407200D02*
X101928571Y-61454819D01*
X101928571Y-61454819D02*
X102119047Y-61454819D01*
X102119047Y-61454819D02*
X102214285Y-61407200D01*
X102214285Y-61407200D02*
X102261904Y-61359580D01*
X102261904Y-61359580D02*
X102309523Y-61264342D01*
X102309523Y-61264342D02*
X102309523Y-60454819D01*
X103214285Y-60788152D02*
X103214285Y-61454819D01*
X102976190Y-60407200D02*
X102738095Y-61121485D01*
X102738095Y-61121485D02*
X103357142Y-61121485D01*
X98167143Y-59592200D02*
X98310000Y-59639819D01*
X98310000Y-59639819D02*
X98548095Y-59639819D01*
X98548095Y-59639819D02*
X98643333Y-59592200D01*
X98643333Y-59592200D02*
X98690952Y-59544580D01*
X98690952Y-59544580D02*
X98738571Y-59449342D01*
X98738571Y-59449342D02*
X98738571Y-59354104D01*
X98738571Y-59354104D02*
X98690952Y-59258866D01*
X98690952Y-59258866D02*
X98643333Y-59211247D01*
X98643333Y-59211247D02*
X98548095Y-59163628D01*
X98548095Y-59163628D02*
X98357619Y-59116009D01*
X98357619Y-59116009D02*
X98262381Y-59068390D01*
X98262381Y-59068390D02*
X98214762Y-59020771D01*
X98214762Y-59020771D02*
X98167143Y-58925533D01*
X98167143Y-58925533D02*
X98167143Y-58830295D01*
X98167143Y-58830295D02*
X98214762Y-58735057D01*
X98214762Y-58735057D02*
X98262381Y-58687438D01*
X98262381Y-58687438D02*
X98357619Y-58639819D01*
X98357619Y-58639819D02*
X98595714Y-58639819D01*
X98595714Y-58639819D02*
X98738571Y-58687438D01*
X99167143Y-59639819D02*
X99167143Y-58639819D01*
X99167143Y-58639819D02*
X99738571Y-59639819D01*
X99738571Y-59639819D02*
X99738571Y-58639819D01*
X100119524Y-58639819D02*
X100786190Y-58639819D01*
X100786190Y-58639819D02*
X100357619Y-59639819D01*
X101595714Y-58639819D02*
X101405238Y-58639819D01*
X101405238Y-58639819D02*
X101310000Y-58687438D01*
X101310000Y-58687438D02*
X101262381Y-58735057D01*
X101262381Y-58735057D02*
X101167143Y-58877914D01*
X101167143Y-58877914D02*
X101119524Y-59068390D01*
X101119524Y-59068390D02*
X101119524Y-59449342D01*
X101119524Y-59449342D02*
X101167143Y-59544580D01*
X101167143Y-59544580D02*
X101214762Y-59592200D01*
X101214762Y-59592200D02*
X101310000Y-59639819D01*
X101310000Y-59639819D02*
X101500476Y-59639819D01*
X101500476Y-59639819D02*
X101595714Y-59592200D01*
X101595714Y-59592200D02*
X101643333Y-59544580D01*
X101643333Y-59544580D02*
X101690952Y-59449342D01*
X101690952Y-59449342D02*
X101690952Y-59211247D01*
X101690952Y-59211247D02*
X101643333Y-59116009D01*
X101643333Y-59116009D02*
X101595714Y-59068390D01*
X101595714Y-59068390D02*
X101500476Y-59020771D01*
X101500476Y-59020771D02*
X101310000Y-59020771D01*
X101310000Y-59020771D02*
X101214762Y-59068390D01*
X101214762Y-59068390D02*
X101167143Y-59116009D01*
X101167143Y-59116009D02*
X101119524Y-59211247D01*
X102548095Y-58973152D02*
X102548095Y-59639819D01*
X102310000Y-58592200D02*
X102071905Y-59306485D01*
X102071905Y-59306485D02*
X102690952Y-59306485D01*
X103214762Y-59068390D02*
X103119524Y-59020771D01*
X103119524Y-59020771D02*
X103071905Y-58973152D01*
X103071905Y-58973152D02*
X103024286Y-58877914D01*
X103024286Y-58877914D02*
X103024286Y-58830295D01*
X103024286Y-58830295D02*
X103071905Y-58735057D01*
X103071905Y-58735057D02*
X103119524Y-58687438D01*
X103119524Y-58687438D02*
X103214762Y-58639819D01*
X103214762Y-58639819D02*
X103405238Y-58639819D01*
X103405238Y-58639819D02*
X103500476Y-58687438D01*
X103500476Y-58687438D02*
X103548095Y-58735057D01*
X103548095Y-58735057D02*
X103595714Y-58830295D01*
X103595714Y-58830295D02*
X103595714Y-58877914D01*
X103595714Y-58877914D02*
X103548095Y-58973152D01*
X103548095Y-58973152D02*
X103500476Y-59020771D01*
X103500476Y-59020771D02*
X103405238Y-59068390D01*
X103405238Y-59068390D02*
X103214762Y-59068390D01*
X103214762Y-59068390D02*
X103119524Y-59116009D01*
X103119524Y-59116009D02*
X103071905Y-59163628D01*
X103071905Y-59163628D02*
X103024286Y-59258866D01*
X103024286Y-59258866D02*
X103024286Y-59449342D01*
X103024286Y-59449342D02*
X103071905Y-59544580D01*
X103071905Y-59544580D02*
X103119524Y-59592200D01*
X103119524Y-59592200D02*
X103214762Y-59639819D01*
X103214762Y-59639819D02*
X103405238Y-59639819D01*
X103405238Y-59639819D02*
X103500476Y-59592200D01*
X103500476Y-59592200D02*
X103548095Y-59544580D01*
X103548095Y-59544580D02*
X103595714Y-59449342D01*
X103595714Y-59449342D02*
X103595714Y-59258866D01*
X103595714Y-59258866D02*
X103548095Y-59163628D01*
X103548095Y-59163628D02*
X103500476Y-59116009D01*
X103500476Y-59116009D02*
X103405238Y-59068390D01*
X104071905Y-59639819D02*
X104262381Y-59639819D01*
X104262381Y-59639819D02*
X104357619Y-59592200D01*
X104357619Y-59592200D02*
X104405238Y-59544580D01*
X104405238Y-59544580D02*
X104500476Y-59401723D01*
X104500476Y-59401723D02*
X104548095Y-59211247D01*
X104548095Y-59211247D02*
X104548095Y-58830295D01*
X104548095Y-58830295D02*
X104500476Y-58735057D01*
X104500476Y-58735057D02*
X104452857Y-58687438D01*
X104452857Y-58687438D02*
X104357619Y-58639819D01*
X104357619Y-58639819D02*
X104167143Y-58639819D01*
X104167143Y-58639819D02*
X104071905Y-58687438D01*
X104071905Y-58687438D02*
X104024286Y-58735057D01*
X104024286Y-58735057D02*
X103976667Y-58830295D01*
X103976667Y-58830295D02*
X103976667Y-59068390D01*
X103976667Y-59068390D02*
X104024286Y-59163628D01*
X104024286Y-59163628D02*
X104071905Y-59211247D01*
X104071905Y-59211247D02*
X104167143Y-59258866D01*
X104167143Y-59258866D02*
X104357619Y-59258866D01*
X104357619Y-59258866D02*
X104452857Y-59211247D01*
X104452857Y-59211247D02*
X104500476Y-59163628D01*
X104500476Y-59163628D02*
X104548095Y-59068390D01*
X104929048Y-59354104D02*
X105405238Y-59354104D01*
X104833810Y-59639819D02*
X105167143Y-58639819D01*
X105167143Y-58639819D02*
X105500476Y-59639819D01*
X105833810Y-59639819D02*
X105833810Y-58639819D01*
X105833810Y-58639819D02*
X106405238Y-59639819D01*
X106405238Y-59639819D02*
X106405238Y-58639819D01*
X113454819Y-74666666D02*
X112978628Y-74999999D01*
X113454819Y-75238094D02*
X112454819Y-75238094D01*
X112454819Y-75238094D02*
X112454819Y-74857142D01*
X112454819Y-74857142D02*
X112502438Y-74761904D01*
X112502438Y-74761904D02*
X112550057Y-74714285D01*
X112550057Y-74714285D02*
X112645295Y-74666666D01*
X112645295Y-74666666D02*
X112788152Y-74666666D01*
X112788152Y-74666666D02*
X112883390Y-74714285D01*
X112883390Y-74714285D02*
X112931009Y-74761904D01*
X112931009Y-74761904D02*
X112978628Y-74857142D01*
X112978628Y-74857142D02*
X112978628Y-75238094D01*
X113454819Y-73714285D02*
X113454819Y-74285713D01*
X113454819Y-73999999D02*
X112454819Y-73999999D01*
X112454819Y-73999999D02*
X112597676Y-74095237D01*
X112597676Y-74095237D02*
X112692914Y-74190475D01*
X112692914Y-74190475D02*
X112740533Y-74285713D01*
X120859580Y-64166666D02*
X120907200Y-64214285D01*
X120907200Y-64214285D02*
X120954819Y-64357142D01*
X120954819Y-64357142D02*
X120954819Y-64452380D01*
X120954819Y-64452380D02*
X120907200Y-64595237D01*
X120907200Y-64595237D02*
X120811961Y-64690475D01*
X120811961Y-64690475D02*
X120716723Y-64738094D01*
X120716723Y-64738094D02*
X120526247Y-64785713D01*
X120526247Y-64785713D02*
X120383390Y-64785713D01*
X120383390Y-64785713D02*
X120192914Y-64738094D01*
X120192914Y-64738094D02*
X120097676Y-64690475D01*
X120097676Y-64690475D02*
X120002438Y-64595237D01*
X120002438Y-64595237D02*
X119954819Y-64452380D01*
X119954819Y-64452380D02*
X119954819Y-64357142D01*
X119954819Y-64357142D02*
X120002438Y-64214285D01*
X120002438Y-64214285D02*
X120050057Y-64166666D01*
X120954819Y-63690475D02*
X120954819Y-63499999D01*
X120954819Y-63499999D02*
X120907200Y-63404761D01*
X120907200Y-63404761D02*
X120859580Y-63357142D01*
X120859580Y-63357142D02*
X120716723Y-63261904D01*
X120716723Y-63261904D02*
X120526247Y-63214285D01*
X120526247Y-63214285D02*
X120145295Y-63214285D01*
X120145295Y-63214285D02*
X120050057Y-63261904D01*
X120050057Y-63261904D02*
X120002438Y-63309523D01*
X120002438Y-63309523D02*
X119954819Y-63404761D01*
X119954819Y-63404761D02*
X119954819Y-63595237D01*
X119954819Y-63595237D02*
X120002438Y-63690475D01*
X120002438Y-63690475D02*
X120050057Y-63738094D01*
X120050057Y-63738094D02*
X120145295Y-63785713D01*
X120145295Y-63785713D02*
X120383390Y-63785713D01*
X120383390Y-63785713D02*
X120478628Y-63738094D01*
X120478628Y-63738094D02*
X120526247Y-63690475D01*
X120526247Y-63690475D02*
X120573866Y-63595237D01*
X120573866Y-63595237D02*
X120573866Y-63404761D01*
X120573866Y-63404761D02*
X120526247Y-63309523D01*
X120526247Y-63309523D02*
X120478628Y-63261904D01*
X120478628Y-63261904D02*
X120383390Y-63214285D01*
X112833333Y-88859580D02*
X112785714Y-88907200D01*
X112785714Y-88907200D02*
X112642857Y-88954819D01*
X112642857Y-88954819D02*
X112547619Y-88954819D01*
X112547619Y-88954819D02*
X112404762Y-88907200D01*
X112404762Y-88907200D02*
X112309524Y-88811961D01*
X112309524Y-88811961D02*
X112261905Y-88716723D01*
X112261905Y-88716723D02*
X112214286Y-88526247D01*
X112214286Y-88526247D02*
X112214286Y-88383390D01*
X112214286Y-88383390D02*
X112261905Y-88192914D01*
X112261905Y-88192914D02*
X112309524Y-88097676D01*
X112309524Y-88097676D02*
X112404762Y-88002438D01*
X112404762Y-88002438D02*
X112547619Y-87954819D01*
X112547619Y-87954819D02*
X112642857Y-87954819D01*
X112642857Y-87954819D02*
X112785714Y-88002438D01*
X112785714Y-88002438D02*
X112833333Y-88050057D01*
X113404762Y-88383390D02*
X113309524Y-88335771D01*
X113309524Y-88335771D02*
X113261905Y-88288152D01*
X113261905Y-88288152D02*
X113214286Y-88192914D01*
X113214286Y-88192914D02*
X113214286Y-88145295D01*
X113214286Y-88145295D02*
X113261905Y-88050057D01*
X113261905Y-88050057D02*
X113309524Y-88002438D01*
X113309524Y-88002438D02*
X113404762Y-87954819D01*
X113404762Y-87954819D02*
X113595238Y-87954819D01*
X113595238Y-87954819D02*
X113690476Y-88002438D01*
X113690476Y-88002438D02*
X113738095Y-88050057D01*
X113738095Y-88050057D02*
X113785714Y-88145295D01*
X113785714Y-88145295D02*
X113785714Y-88192914D01*
X113785714Y-88192914D02*
X113738095Y-88288152D01*
X113738095Y-88288152D02*
X113690476Y-88335771D01*
X113690476Y-88335771D02*
X113595238Y-88383390D01*
X113595238Y-88383390D02*
X113404762Y-88383390D01*
X113404762Y-88383390D02*
X113309524Y-88431009D01*
X113309524Y-88431009D02*
X113261905Y-88478628D01*
X113261905Y-88478628D02*
X113214286Y-88573866D01*
X113214286Y-88573866D02*
X113214286Y-88764342D01*
X113214286Y-88764342D02*
X113261905Y-88859580D01*
X113261905Y-88859580D02*
X113309524Y-88907200D01*
X113309524Y-88907200D02*
X113404762Y-88954819D01*
X113404762Y-88954819D02*
X113595238Y-88954819D01*
X113595238Y-88954819D02*
X113690476Y-88907200D01*
X113690476Y-88907200D02*
X113738095Y-88859580D01*
X113738095Y-88859580D02*
X113785714Y-88764342D01*
X113785714Y-88764342D02*
X113785714Y-88573866D01*
X113785714Y-88573866D02*
X113738095Y-88478628D01*
X113738095Y-88478628D02*
X113690476Y-88431009D01*
X113690476Y-88431009D02*
X113595238Y-88383390D01*
X81666667Y-95907200D02*
X81809524Y-95954819D01*
X81809524Y-95954819D02*
X82047619Y-95954819D01*
X82047619Y-95954819D02*
X82142857Y-95907200D01*
X82142857Y-95907200D02*
X82190476Y-95859580D01*
X82190476Y-95859580D02*
X82238095Y-95764342D01*
X82238095Y-95764342D02*
X82238095Y-95669104D01*
X82238095Y-95669104D02*
X82190476Y-95573866D01*
X82190476Y-95573866D02*
X82142857Y-95526247D01*
X82142857Y-95526247D02*
X82047619Y-95478628D01*
X82047619Y-95478628D02*
X81857143Y-95431009D01*
X81857143Y-95431009D02*
X81761905Y-95383390D01*
X81761905Y-95383390D02*
X81714286Y-95335771D01*
X81714286Y-95335771D02*
X81666667Y-95240533D01*
X81666667Y-95240533D02*
X81666667Y-95145295D01*
X81666667Y-95145295D02*
X81714286Y-95050057D01*
X81714286Y-95050057D02*
X81761905Y-95002438D01*
X81761905Y-95002438D02*
X81857143Y-94954819D01*
X81857143Y-94954819D02*
X82095238Y-94954819D01*
X82095238Y-94954819D02*
X82238095Y-95002438D01*
X82571429Y-94954819D02*
X82809524Y-95954819D01*
X82809524Y-95954819D02*
X83000000Y-95240533D01*
X83000000Y-95240533D02*
X83190476Y-95954819D01*
X83190476Y-95954819D02*
X83428572Y-94954819D01*
X83714286Y-94954819D02*
X84333333Y-94954819D01*
X84333333Y-94954819D02*
X84000000Y-95335771D01*
X84000000Y-95335771D02*
X84142857Y-95335771D01*
X84142857Y-95335771D02*
X84238095Y-95383390D01*
X84238095Y-95383390D02*
X84285714Y-95431009D01*
X84285714Y-95431009D02*
X84333333Y-95526247D01*
X84333333Y-95526247D02*
X84333333Y-95764342D01*
X84333333Y-95764342D02*
X84285714Y-95859580D01*
X84285714Y-95859580D02*
X84238095Y-95907200D01*
X84238095Y-95907200D02*
X84142857Y-95954819D01*
X84142857Y-95954819D02*
X83857143Y-95954819D01*
X83857143Y-95954819D02*
X83761905Y-95907200D01*
X83761905Y-95907200D02*
X83714286Y-95859580D01*
X121954819Y-96333333D02*
X122669104Y-96333333D01*
X122669104Y-96333333D02*
X122811961Y-96380952D01*
X122811961Y-96380952D02*
X122907200Y-96476190D01*
X122907200Y-96476190D02*
X122954819Y-96619047D01*
X122954819Y-96619047D02*
X122954819Y-96714285D01*
X122954819Y-95333333D02*
X122954819Y-95904761D01*
X122954819Y-95619047D02*
X121954819Y-95619047D01*
X121954819Y-95619047D02*
X122097676Y-95714285D01*
X122097676Y-95714285D02*
X122192914Y-95809523D01*
X122192914Y-95809523D02*
X122240533Y-95904761D01*
X119595238Y-98669104D02*
X120071428Y-98669104D01*
X119500000Y-98954819D02*
X119833333Y-97954819D01*
X119833333Y-97954819D02*
X120166666Y-98954819D01*
X120500000Y-98954819D02*
X120500000Y-98288152D01*
X120500000Y-98383390D02*
X120547619Y-98335771D01*
X120547619Y-98335771D02*
X120642857Y-98288152D01*
X120642857Y-98288152D02*
X120785714Y-98288152D01*
X120785714Y-98288152D02*
X120880952Y-98335771D01*
X120880952Y-98335771D02*
X120928571Y-98431009D01*
X120928571Y-98431009D02*
X120928571Y-98954819D01*
X120928571Y-98431009D02*
X120976190Y-98335771D01*
X120976190Y-98335771D02*
X121071428Y-98288152D01*
X121071428Y-98288152D02*
X121214285Y-98288152D01*
X121214285Y-98288152D02*
X121309524Y-98335771D01*
X121309524Y-98335771D02*
X121357143Y-98431009D01*
X121357143Y-98431009D02*
X121357143Y-98954819D01*
X121833333Y-98288152D02*
X121833333Y-99288152D01*
X121833333Y-98335771D02*
X121928571Y-98288152D01*
X121928571Y-98288152D02*
X122119047Y-98288152D01*
X122119047Y-98288152D02*
X122214285Y-98335771D01*
X122214285Y-98335771D02*
X122261904Y-98383390D01*
X122261904Y-98383390D02*
X122309523Y-98478628D01*
X122309523Y-98478628D02*
X122309523Y-98764342D01*
X122309523Y-98764342D02*
X122261904Y-98859580D01*
X122261904Y-98859580D02*
X122214285Y-98907200D01*
X122214285Y-98907200D02*
X122119047Y-98954819D01*
X122119047Y-98954819D02*
X121928571Y-98954819D01*
X121928571Y-98954819D02*
X121833333Y-98907200D01*
X122880952Y-98954819D02*
X122785714Y-98907200D01*
X122785714Y-98907200D02*
X122738095Y-98811961D01*
X122738095Y-98811961D02*
X122738095Y-97954819D01*
X123261905Y-98954819D02*
X123261905Y-98288152D01*
X123261905Y-97954819D02*
X123214286Y-98002438D01*
X123214286Y-98002438D02*
X123261905Y-98050057D01*
X123261905Y-98050057D02*
X123309524Y-98002438D01*
X123309524Y-98002438D02*
X123261905Y-97954819D01*
X123261905Y-97954819D02*
X123261905Y-98050057D01*
X123595238Y-98288152D02*
X123976190Y-98288152D01*
X123738095Y-98954819D02*
X123738095Y-98097676D01*
X123738095Y-98097676D02*
X123785714Y-98002438D01*
X123785714Y-98002438D02*
X123880952Y-97954819D01*
X123880952Y-97954819D02*
X123976190Y-97954819D01*
X124309524Y-98954819D02*
X124309524Y-98288152D01*
X124309524Y-97954819D02*
X124261905Y-98002438D01*
X124261905Y-98002438D02*
X124309524Y-98050057D01*
X124309524Y-98050057D02*
X124357143Y-98002438D01*
X124357143Y-98002438D02*
X124309524Y-97954819D01*
X124309524Y-97954819D02*
X124309524Y-98050057D01*
X125166666Y-98907200D02*
X125071428Y-98954819D01*
X125071428Y-98954819D02*
X124880952Y-98954819D01*
X124880952Y-98954819D02*
X124785714Y-98907200D01*
X124785714Y-98907200D02*
X124738095Y-98811961D01*
X124738095Y-98811961D02*
X124738095Y-98431009D01*
X124738095Y-98431009D02*
X124785714Y-98335771D01*
X124785714Y-98335771D02*
X124880952Y-98288152D01*
X124880952Y-98288152D02*
X125071428Y-98288152D01*
X125071428Y-98288152D02*
X125166666Y-98335771D01*
X125166666Y-98335771D02*
X125214285Y-98431009D01*
X125214285Y-98431009D02*
X125214285Y-98526247D01*
X125214285Y-98526247D02*
X124738095Y-98621485D01*
X126071428Y-98954819D02*
X126071428Y-97954819D01*
X126071428Y-98907200D02*
X125976190Y-98954819D01*
X125976190Y-98954819D02*
X125785714Y-98954819D01*
X125785714Y-98954819D02*
X125690476Y-98907200D01*
X125690476Y-98907200D02*
X125642857Y-98859580D01*
X125642857Y-98859580D02*
X125595238Y-98764342D01*
X125595238Y-98764342D02*
X125595238Y-98478628D01*
X125595238Y-98478628D02*
X125642857Y-98383390D01*
X125642857Y-98383390D02*
X125690476Y-98335771D01*
X125690476Y-98335771D02*
X125785714Y-98288152D01*
X125785714Y-98288152D02*
X125976190Y-98288152D01*
X125976190Y-98288152D02*
X126071428Y-98335771D01*
X127500000Y-97954819D02*
X127690476Y-97954819D01*
X127690476Y-97954819D02*
X127785714Y-98002438D01*
X127785714Y-98002438D02*
X127880952Y-98097676D01*
X127880952Y-98097676D02*
X127928571Y-98288152D01*
X127928571Y-98288152D02*
X127928571Y-98621485D01*
X127928571Y-98621485D02*
X127880952Y-98811961D01*
X127880952Y-98811961D02*
X127785714Y-98907200D01*
X127785714Y-98907200D02*
X127690476Y-98954819D01*
X127690476Y-98954819D02*
X127500000Y-98954819D01*
X127500000Y-98954819D02*
X127404762Y-98907200D01*
X127404762Y-98907200D02*
X127309524Y-98811961D01*
X127309524Y-98811961D02*
X127261905Y-98621485D01*
X127261905Y-98621485D02*
X127261905Y-98288152D01*
X127261905Y-98288152D02*
X127309524Y-98097676D01*
X127309524Y-98097676D02*
X127404762Y-98002438D01*
X127404762Y-98002438D02*
X127500000Y-97954819D01*
X128785714Y-98288152D02*
X128785714Y-98954819D01*
X128357143Y-98288152D02*
X128357143Y-98811961D01*
X128357143Y-98811961D02*
X128404762Y-98907200D01*
X128404762Y-98907200D02*
X128500000Y-98954819D01*
X128500000Y-98954819D02*
X128642857Y-98954819D01*
X128642857Y-98954819D02*
X128738095Y-98907200D01*
X128738095Y-98907200D02*
X128785714Y-98859580D01*
X129119048Y-98288152D02*
X129500000Y-98288152D01*
X129261905Y-97954819D02*
X129261905Y-98811961D01*
X129261905Y-98811961D02*
X129309524Y-98907200D01*
X129309524Y-98907200D02*
X129404762Y-98954819D01*
X129404762Y-98954819D02*
X129500000Y-98954819D01*
X67916666Y-97074819D02*
X67916666Y-97789104D01*
X67916666Y-97789104D02*
X67869047Y-97931961D01*
X67869047Y-97931961D02*
X67773809Y-98027200D01*
X67773809Y-98027200D02*
X67630952Y-98074819D01*
X67630952Y-98074819D02*
X67535714Y-98074819D01*
X68869047Y-97074819D02*
X68392857Y-97074819D01*
X68392857Y-97074819D02*
X68345238Y-97551009D01*
X68345238Y-97551009D02*
X68392857Y-97503390D01*
X68392857Y-97503390D02*
X68488095Y-97455771D01*
X68488095Y-97455771D02*
X68726190Y-97455771D01*
X68726190Y-97455771D02*
X68821428Y-97503390D01*
X68821428Y-97503390D02*
X68869047Y-97551009D01*
X68869047Y-97551009D02*
X68916666Y-97646247D01*
X68916666Y-97646247D02*
X68916666Y-97884342D01*
X68916666Y-97884342D02*
X68869047Y-97979580D01*
X68869047Y-97979580D02*
X68821428Y-98027200D01*
X68821428Y-98027200D02*
X68726190Y-98074819D01*
X68726190Y-98074819D02*
X68488095Y-98074819D01*
X68488095Y-98074819D02*
X68392857Y-98027200D01*
X68392857Y-98027200D02*
X68345238Y-97979580D01*
X63297619Y-99454819D02*
X63297619Y-98454819D01*
X63297619Y-98454819D02*
X63678571Y-98454819D01*
X63678571Y-98454819D02*
X63773809Y-98502438D01*
X63773809Y-98502438D02*
X63821428Y-98550057D01*
X63821428Y-98550057D02*
X63869047Y-98645295D01*
X63869047Y-98645295D02*
X63869047Y-98788152D01*
X63869047Y-98788152D02*
X63821428Y-98883390D01*
X63821428Y-98883390D02*
X63773809Y-98931009D01*
X63773809Y-98931009D02*
X63678571Y-98978628D01*
X63678571Y-98978628D02*
X63297619Y-98978628D01*
X64440476Y-99454819D02*
X64345238Y-99407200D01*
X64345238Y-99407200D02*
X64297619Y-99359580D01*
X64297619Y-99359580D02*
X64250000Y-99264342D01*
X64250000Y-99264342D02*
X64250000Y-98978628D01*
X64250000Y-98978628D02*
X64297619Y-98883390D01*
X64297619Y-98883390D02*
X64345238Y-98835771D01*
X64345238Y-98835771D02*
X64440476Y-98788152D01*
X64440476Y-98788152D02*
X64583333Y-98788152D01*
X64583333Y-98788152D02*
X64678571Y-98835771D01*
X64678571Y-98835771D02*
X64726190Y-98883390D01*
X64726190Y-98883390D02*
X64773809Y-98978628D01*
X64773809Y-98978628D02*
X64773809Y-99264342D01*
X64773809Y-99264342D02*
X64726190Y-99359580D01*
X64726190Y-99359580D02*
X64678571Y-99407200D01*
X64678571Y-99407200D02*
X64583333Y-99454819D01*
X64583333Y-99454819D02*
X64440476Y-99454819D01*
X65107143Y-98788152D02*
X65297619Y-99454819D01*
X65297619Y-99454819D02*
X65488095Y-98978628D01*
X65488095Y-98978628D02*
X65678571Y-99454819D01*
X65678571Y-99454819D02*
X65869047Y-98788152D01*
X66630952Y-99407200D02*
X66535714Y-99454819D01*
X66535714Y-99454819D02*
X66345238Y-99454819D01*
X66345238Y-99454819D02*
X66250000Y-99407200D01*
X66250000Y-99407200D02*
X66202381Y-99311961D01*
X66202381Y-99311961D02*
X66202381Y-98931009D01*
X66202381Y-98931009D02*
X66250000Y-98835771D01*
X66250000Y-98835771D02*
X66345238Y-98788152D01*
X66345238Y-98788152D02*
X66535714Y-98788152D01*
X66535714Y-98788152D02*
X66630952Y-98835771D01*
X66630952Y-98835771D02*
X66678571Y-98931009D01*
X66678571Y-98931009D02*
X66678571Y-99026247D01*
X66678571Y-99026247D02*
X66202381Y-99121485D01*
X67107143Y-99454819D02*
X67107143Y-98788152D01*
X67107143Y-98978628D02*
X67154762Y-98883390D01*
X67154762Y-98883390D02*
X67202381Y-98835771D01*
X67202381Y-98835771D02*
X67297619Y-98788152D01*
X67297619Y-98788152D02*
X67392857Y-98788152D01*
X68488096Y-99454819D02*
X68488096Y-98788152D01*
X68488096Y-98454819D02*
X68440477Y-98502438D01*
X68440477Y-98502438D02*
X68488096Y-98550057D01*
X68488096Y-98550057D02*
X68535715Y-98502438D01*
X68535715Y-98502438D02*
X68488096Y-98454819D01*
X68488096Y-98454819D02*
X68488096Y-98550057D01*
X68964286Y-98788152D02*
X68964286Y-99454819D01*
X68964286Y-98883390D02*
X69011905Y-98835771D01*
X69011905Y-98835771D02*
X69107143Y-98788152D01*
X69107143Y-98788152D02*
X69250000Y-98788152D01*
X69250000Y-98788152D02*
X69345238Y-98835771D01*
X69345238Y-98835771D02*
X69392857Y-98931009D01*
X69392857Y-98931009D02*
X69392857Y-99454819D01*
X69630953Y-99550057D02*
X70392857Y-99550057D01*
X70630953Y-99073866D02*
X71392858Y-99073866D01*
X71011905Y-99454819D02*
X71011905Y-98692914D01*
X72345238Y-98454819D02*
X71869048Y-98454819D01*
X71869048Y-98454819D02*
X71821429Y-98931009D01*
X71821429Y-98931009D02*
X71869048Y-98883390D01*
X71869048Y-98883390D02*
X71964286Y-98835771D01*
X71964286Y-98835771D02*
X72202381Y-98835771D01*
X72202381Y-98835771D02*
X72297619Y-98883390D01*
X72297619Y-98883390D02*
X72345238Y-98931009D01*
X72345238Y-98931009D02*
X72392857Y-99026247D01*
X72392857Y-99026247D02*
X72392857Y-99264342D01*
X72392857Y-99264342D02*
X72345238Y-99359580D01*
X72345238Y-99359580D02*
X72297619Y-99407200D01*
X72297619Y-99407200D02*
X72202381Y-99454819D01*
X72202381Y-99454819D02*
X71964286Y-99454819D01*
X71964286Y-99454819D02*
X71869048Y-99407200D01*
X71869048Y-99407200D02*
X71821429Y-99359580D01*
X72678572Y-98454819D02*
X73011905Y-99454819D01*
X73011905Y-99454819D02*
X73345238Y-98454819D01*
X115584819Y-47666666D02*
X115108628Y-47999999D01*
X115584819Y-48238094D02*
X114584819Y-48238094D01*
X114584819Y-48238094D02*
X114584819Y-47857142D01*
X114584819Y-47857142D02*
X114632438Y-47761904D01*
X114632438Y-47761904D02*
X114680057Y-47714285D01*
X114680057Y-47714285D02*
X114775295Y-47666666D01*
X114775295Y-47666666D02*
X114918152Y-47666666D01*
X114918152Y-47666666D02*
X115013390Y-47714285D01*
X115013390Y-47714285D02*
X115061009Y-47761904D01*
X115061009Y-47761904D02*
X115108628Y-47857142D01*
X115108628Y-47857142D02*
X115108628Y-48238094D01*
X114918152Y-46809523D02*
X115584819Y-46809523D01*
X114537200Y-47047618D02*
X115251485Y-47285713D01*
X115251485Y-47285713D02*
X115251485Y-46666666D01*
X90954819Y-38238094D02*
X89954819Y-38238094D01*
X89954819Y-38238094D02*
X89954819Y-37999999D01*
X89954819Y-37999999D02*
X90002438Y-37857142D01*
X90002438Y-37857142D02*
X90097676Y-37761904D01*
X90097676Y-37761904D02*
X90192914Y-37714285D01*
X90192914Y-37714285D02*
X90383390Y-37666666D01*
X90383390Y-37666666D02*
X90526247Y-37666666D01*
X90526247Y-37666666D02*
X90716723Y-37714285D01*
X90716723Y-37714285D02*
X90811961Y-37761904D01*
X90811961Y-37761904D02*
X90907200Y-37857142D01*
X90907200Y-37857142D02*
X90954819Y-37999999D01*
X90954819Y-37999999D02*
X90954819Y-38238094D01*
X90050057Y-37285713D02*
X90002438Y-37238094D01*
X90002438Y-37238094D02*
X89954819Y-37142856D01*
X89954819Y-37142856D02*
X89954819Y-36904761D01*
X89954819Y-36904761D02*
X90002438Y-36809523D01*
X90002438Y-36809523D02*
X90050057Y-36761904D01*
X90050057Y-36761904D02*
X90145295Y-36714285D01*
X90145295Y-36714285D02*
X90240533Y-36714285D01*
X90240533Y-36714285D02*
X90383390Y-36761904D01*
X90383390Y-36761904D02*
X90954819Y-37333332D01*
X90954819Y-37333332D02*
X90954819Y-36714285D01*
X90859580Y-60142857D02*
X90907200Y-60190476D01*
X90907200Y-60190476D02*
X90954819Y-60333333D01*
X90954819Y-60333333D02*
X90954819Y-60428571D01*
X90954819Y-60428571D02*
X90907200Y-60571428D01*
X90907200Y-60571428D02*
X90811961Y-60666666D01*
X90811961Y-60666666D02*
X90716723Y-60714285D01*
X90716723Y-60714285D02*
X90526247Y-60761904D01*
X90526247Y-60761904D02*
X90383390Y-60761904D01*
X90383390Y-60761904D02*
X90192914Y-60714285D01*
X90192914Y-60714285D02*
X90097676Y-60666666D01*
X90097676Y-60666666D02*
X90002438Y-60571428D01*
X90002438Y-60571428D02*
X89954819Y-60428571D01*
X89954819Y-60428571D02*
X89954819Y-60333333D01*
X89954819Y-60333333D02*
X90002438Y-60190476D01*
X90002438Y-60190476D02*
X90050057Y-60142857D01*
X90954819Y-59190476D02*
X90954819Y-59761904D01*
X90954819Y-59476190D02*
X89954819Y-59476190D01*
X89954819Y-59476190D02*
X90097676Y-59571428D01*
X90097676Y-59571428D02*
X90192914Y-59666666D01*
X90192914Y-59666666D02*
X90240533Y-59761904D01*
X89954819Y-58571428D02*
X89954819Y-58476190D01*
X89954819Y-58476190D02*
X90002438Y-58380952D01*
X90002438Y-58380952D02*
X90050057Y-58333333D01*
X90050057Y-58333333D02*
X90145295Y-58285714D01*
X90145295Y-58285714D02*
X90335771Y-58238095D01*
X90335771Y-58238095D02*
X90573866Y-58238095D01*
X90573866Y-58238095D02*
X90764342Y-58285714D01*
X90764342Y-58285714D02*
X90859580Y-58333333D01*
X90859580Y-58333333D02*
X90907200Y-58380952D01*
X90907200Y-58380952D02*
X90954819Y-58476190D01*
X90954819Y-58476190D02*
X90954819Y-58571428D01*
X90954819Y-58571428D02*
X90907200Y-58666666D01*
X90907200Y-58666666D02*
X90859580Y-58714285D01*
X90859580Y-58714285D02*
X90764342Y-58761904D01*
X90764342Y-58761904D02*
X90573866Y-58809523D01*
X90573866Y-58809523D02*
X90335771Y-58809523D01*
X90335771Y-58809523D02*
X90145295Y-58761904D01*
X90145295Y-58761904D02*
X90050057Y-58714285D01*
X90050057Y-58714285D02*
X90002438Y-58666666D01*
X90002438Y-58666666D02*
X89954819Y-58571428D01*
X114666666Y-64309819D02*
X114666666Y-65024104D01*
X114666666Y-65024104D02*
X114619047Y-65166961D01*
X114619047Y-65166961D02*
X114523809Y-65262200D01*
X114523809Y-65262200D02*
X114380952Y-65309819D01*
X114380952Y-65309819D02*
X114285714Y-65309819D01*
X115142857Y-65309819D02*
X115142857Y-64309819D01*
X115142857Y-64309819D02*
X115523809Y-64309819D01*
X115523809Y-64309819D02*
X115619047Y-64357438D01*
X115619047Y-64357438D02*
X115666666Y-64405057D01*
X115666666Y-64405057D02*
X115714285Y-64500295D01*
X115714285Y-64500295D02*
X115714285Y-64643152D01*
X115714285Y-64643152D02*
X115666666Y-64738390D01*
X115666666Y-64738390D02*
X115619047Y-64786009D01*
X115619047Y-64786009D02*
X115523809Y-64833628D01*
X115523809Y-64833628D02*
X115142857Y-64833628D01*
X116666666Y-65309819D02*
X116095238Y-65309819D01*
X116380952Y-65309819D02*
X116380952Y-64309819D01*
X116380952Y-64309819D02*
X116285714Y-64452676D01*
X116285714Y-64452676D02*
X116190476Y-64547914D01*
X116190476Y-64547914D02*
X116095238Y-64595533D01*
X113452380Y-55169104D02*
X113928570Y-55169104D01*
X113357142Y-55454819D02*
X113690475Y-54454819D01*
X113690475Y-54454819D02*
X114023808Y-55454819D01*
X114357142Y-55454819D02*
X114357142Y-54788152D01*
X114357142Y-54883390D02*
X114404761Y-54835771D01*
X114404761Y-54835771D02*
X114499999Y-54788152D01*
X114499999Y-54788152D02*
X114642856Y-54788152D01*
X114642856Y-54788152D02*
X114738094Y-54835771D01*
X114738094Y-54835771D02*
X114785713Y-54931009D01*
X114785713Y-54931009D02*
X114785713Y-55454819D01*
X114785713Y-54931009D02*
X114833332Y-54835771D01*
X114833332Y-54835771D02*
X114928570Y-54788152D01*
X114928570Y-54788152D02*
X115071427Y-54788152D01*
X115071427Y-54788152D02*
X115166666Y-54835771D01*
X115166666Y-54835771D02*
X115214285Y-54931009D01*
X115214285Y-54931009D02*
X115214285Y-55454819D01*
X115690475Y-54788152D02*
X115690475Y-55788152D01*
X115690475Y-54835771D02*
X115785713Y-54788152D01*
X115785713Y-54788152D02*
X115976189Y-54788152D01*
X115976189Y-54788152D02*
X116071427Y-54835771D01*
X116071427Y-54835771D02*
X116119046Y-54883390D01*
X116119046Y-54883390D02*
X116166665Y-54978628D01*
X116166665Y-54978628D02*
X116166665Y-55264342D01*
X116166665Y-55264342D02*
X116119046Y-55359580D01*
X116119046Y-55359580D02*
X116071427Y-55407200D01*
X116071427Y-55407200D02*
X115976189Y-55454819D01*
X115976189Y-55454819D02*
X115785713Y-55454819D01*
X115785713Y-55454819D02*
X115690475Y-55407200D01*
X117499999Y-55454819D02*
X117404761Y-55407200D01*
X117404761Y-55407200D02*
X117357142Y-55359580D01*
X117357142Y-55359580D02*
X117309523Y-55264342D01*
X117309523Y-55264342D02*
X117309523Y-54978628D01*
X117309523Y-54978628D02*
X117357142Y-54883390D01*
X117357142Y-54883390D02*
X117404761Y-54835771D01*
X117404761Y-54835771D02*
X117499999Y-54788152D01*
X117499999Y-54788152D02*
X117642856Y-54788152D01*
X117642856Y-54788152D02*
X117738094Y-54835771D01*
X117738094Y-54835771D02*
X117785713Y-54883390D01*
X117785713Y-54883390D02*
X117833332Y-54978628D01*
X117833332Y-54978628D02*
X117833332Y-55264342D01*
X117833332Y-55264342D02*
X117785713Y-55359580D01*
X117785713Y-55359580D02*
X117738094Y-55407200D01*
X117738094Y-55407200D02*
X117642856Y-55454819D01*
X117642856Y-55454819D02*
X117499999Y-55454819D01*
X118261904Y-55454819D02*
X118261904Y-54788152D01*
X118261904Y-54978628D02*
X118309523Y-54883390D01*
X118309523Y-54883390D02*
X118357142Y-54835771D01*
X118357142Y-54835771D02*
X118452380Y-54788152D01*
X118452380Y-54788152D02*
X118547618Y-54788152D01*
X119928571Y-54454819D02*
X119928571Y-55169104D01*
X119928571Y-55169104D02*
X119880952Y-55311961D01*
X119880952Y-55311961D02*
X119785714Y-55407200D01*
X119785714Y-55407200D02*
X119642857Y-55454819D01*
X119642857Y-55454819D02*
X119547619Y-55454819D01*
X120833333Y-55454819D02*
X120833333Y-54931009D01*
X120833333Y-54931009D02*
X120785714Y-54835771D01*
X120785714Y-54835771D02*
X120690476Y-54788152D01*
X120690476Y-54788152D02*
X120500000Y-54788152D01*
X120500000Y-54788152D02*
X120404762Y-54835771D01*
X120833333Y-55407200D02*
X120738095Y-55454819D01*
X120738095Y-55454819D02*
X120500000Y-55454819D01*
X120500000Y-55454819D02*
X120404762Y-55407200D01*
X120404762Y-55407200D02*
X120357143Y-55311961D01*
X120357143Y-55311961D02*
X120357143Y-55216723D01*
X120357143Y-55216723D02*
X120404762Y-55121485D01*
X120404762Y-55121485D02*
X120500000Y-55073866D01*
X120500000Y-55073866D02*
X120738095Y-55073866D01*
X120738095Y-55073866D02*
X120833333Y-55026247D01*
X121738095Y-55407200D02*
X121642857Y-55454819D01*
X121642857Y-55454819D02*
X121452381Y-55454819D01*
X121452381Y-55454819D02*
X121357143Y-55407200D01*
X121357143Y-55407200D02*
X121309524Y-55359580D01*
X121309524Y-55359580D02*
X121261905Y-55264342D01*
X121261905Y-55264342D02*
X121261905Y-54978628D01*
X121261905Y-54978628D02*
X121309524Y-54883390D01*
X121309524Y-54883390D02*
X121357143Y-54835771D01*
X121357143Y-54835771D02*
X121452381Y-54788152D01*
X121452381Y-54788152D02*
X121642857Y-54788152D01*
X121642857Y-54788152D02*
X121738095Y-54835771D01*
X122166667Y-55454819D02*
X122166667Y-54454819D01*
X122261905Y-55073866D02*
X122547619Y-55454819D01*
X122547619Y-54788152D02*
X122166667Y-55169104D01*
X108954819Y-38238094D02*
X107954819Y-38238094D01*
X107954819Y-38238094D02*
X107954819Y-37999999D01*
X107954819Y-37999999D02*
X108002438Y-37857142D01*
X108002438Y-37857142D02*
X108097676Y-37761904D01*
X108097676Y-37761904D02*
X108192914Y-37714285D01*
X108192914Y-37714285D02*
X108383390Y-37666666D01*
X108383390Y-37666666D02*
X108526247Y-37666666D01*
X108526247Y-37666666D02*
X108716723Y-37714285D01*
X108716723Y-37714285D02*
X108811961Y-37761904D01*
X108811961Y-37761904D02*
X108907200Y-37857142D01*
X108907200Y-37857142D02*
X108954819Y-37999999D01*
X108954819Y-37999999D02*
X108954819Y-38238094D01*
X108383390Y-37095237D02*
X108335771Y-37190475D01*
X108335771Y-37190475D02*
X108288152Y-37238094D01*
X108288152Y-37238094D02*
X108192914Y-37285713D01*
X108192914Y-37285713D02*
X108145295Y-37285713D01*
X108145295Y-37285713D02*
X108050057Y-37238094D01*
X108050057Y-37238094D02*
X108002438Y-37190475D01*
X108002438Y-37190475D02*
X107954819Y-37095237D01*
X107954819Y-37095237D02*
X107954819Y-36904761D01*
X107954819Y-36904761D02*
X108002438Y-36809523D01*
X108002438Y-36809523D02*
X108050057Y-36761904D01*
X108050057Y-36761904D02*
X108145295Y-36714285D01*
X108145295Y-36714285D02*
X108192914Y-36714285D01*
X108192914Y-36714285D02*
X108288152Y-36761904D01*
X108288152Y-36761904D02*
X108335771Y-36809523D01*
X108335771Y-36809523D02*
X108383390Y-36904761D01*
X108383390Y-36904761D02*
X108383390Y-37095237D01*
X108383390Y-37095237D02*
X108431009Y-37190475D01*
X108431009Y-37190475D02*
X108478628Y-37238094D01*
X108478628Y-37238094D02*
X108573866Y-37285713D01*
X108573866Y-37285713D02*
X108764342Y-37285713D01*
X108764342Y-37285713D02*
X108859580Y-37238094D01*
X108859580Y-37238094D02*
X108907200Y-37190475D01*
X108907200Y-37190475D02*
X108954819Y-37095237D01*
X108954819Y-37095237D02*
X108954819Y-36904761D01*
X108954819Y-36904761D02*
X108907200Y-36809523D01*
X108907200Y-36809523D02*
X108859580Y-36761904D01*
X108859580Y-36761904D02*
X108764342Y-36714285D01*
X108764342Y-36714285D02*
X108573866Y-36714285D01*
X108573866Y-36714285D02*
X108478628Y-36761904D01*
X108478628Y-36761904D02*
X108431009Y-36809523D01*
X108431009Y-36809523D02*
X108383390Y-36904761D01*
X102864819Y-38238094D02*
X101864819Y-38238094D01*
X101864819Y-38238094D02*
X101864819Y-37999999D01*
X101864819Y-37999999D02*
X101912438Y-37857142D01*
X101912438Y-37857142D02*
X102007676Y-37761904D01*
X102007676Y-37761904D02*
X102102914Y-37714285D01*
X102102914Y-37714285D02*
X102293390Y-37666666D01*
X102293390Y-37666666D02*
X102436247Y-37666666D01*
X102436247Y-37666666D02*
X102626723Y-37714285D01*
X102626723Y-37714285D02*
X102721961Y-37761904D01*
X102721961Y-37761904D02*
X102817200Y-37857142D01*
X102817200Y-37857142D02*
X102864819Y-37999999D01*
X102864819Y-37999999D02*
X102864819Y-38238094D01*
X101864819Y-36809523D02*
X101864819Y-36999999D01*
X101864819Y-36999999D02*
X101912438Y-37095237D01*
X101912438Y-37095237D02*
X101960057Y-37142856D01*
X101960057Y-37142856D02*
X102102914Y-37238094D01*
X102102914Y-37238094D02*
X102293390Y-37285713D01*
X102293390Y-37285713D02*
X102674342Y-37285713D01*
X102674342Y-37285713D02*
X102769580Y-37238094D01*
X102769580Y-37238094D02*
X102817200Y-37190475D01*
X102817200Y-37190475D02*
X102864819Y-37095237D01*
X102864819Y-37095237D02*
X102864819Y-36904761D01*
X102864819Y-36904761D02*
X102817200Y-36809523D01*
X102817200Y-36809523D02*
X102769580Y-36761904D01*
X102769580Y-36761904D02*
X102674342Y-36714285D01*
X102674342Y-36714285D02*
X102436247Y-36714285D01*
X102436247Y-36714285D02*
X102341009Y-36761904D01*
X102341009Y-36761904D02*
X102293390Y-36809523D01*
X102293390Y-36809523D02*
X102245771Y-36904761D01*
X102245771Y-36904761D02*
X102245771Y-37095237D01*
X102245771Y-37095237D02*
X102293390Y-37190475D01*
X102293390Y-37190475D02*
X102341009Y-37238094D01*
X102341009Y-37238094D02*
X102436247Y-37285713D01*
X105954819Y-38238094D02*
X104954819Y-38238094D01*
X104954819Y-38238094D02*
X104954819Y-37999999D01*
X104954819Y-37999999D02*
X105002438Y-37857142D01*
X105002438Y-37857142D02*
X105097676Y-37761904D01*
X105097676Y-37761904D02*
X105192914Y-37714285D01*
X105192914Y-37714285D02*
X105383390Y-37666666D01*
X105383390Y-37666666D02*
X105526247Y-37666666D01*
X105526247Y-37666666D02*
X105716723Y-37714285D01*
X105716723Y-37714285D02*
X105811961Y-37761904D01*
X105811961Y-37761904D02*
X105907200Y-37857142D01*
X105907200Y-37857142D02*
X105954819Y-37999999D01*
X105954819Y-37999999D02*
X105954819Y-38238094D01*
X104954819Y-37333332D02*
X104954819Y-36666666D01*
X104954819Y-36666666D02*
X105954819Y-37095237D01*
X126166666Y-51044819D02*
X126166666Y-51759104D01*
X126166666Y-51759104D02*
X126119047Y-51901961D01*
X126119047Y-51901961D02*
X126023809Y-51997200D01*
X126023809Y-51997200D02*
X125880952Y-52044819D01*
X125880952Y-52044819D02*
X125785714Y-52044819D01*
X126642857Y-52044819D02*
X126642857Y-51044819D01*
X126642857Y-51044819D02*
X127023809Y-51044819D01*
X127023809Y-51044819D02*
X127119047Y-51092438D01*
X127119047Y-51092438D02*
X127166666Y-51140057D01*
X127166666Y-51140057D02*
X127214285Y-51235295D01*
X127214285Y-51235295D02*
X127214285Y-51378152D01*
X127214285Y-51378152D02*
X127166666Y-51473390D01*
X127166666Y-51473390D02*
X127119047Y-51521009D01*
X127119047Y-51521009D02*
X127023809Y-51568628D01*
X127023809Y-51568628D02*
X126642857Y-51568628D01*
X127547619Y-51044819D02*
X128166666Y-51044819D01*
X128166666Y-51044819D02*
X127833333Y-51425771D01*
X127833333Y-51425771D02*
X127976190Y-51425771D01*
X127976190Y-51425771D02*
X128071428Y-51473390D01*
X128071428Y-51473390D02*
X128119047Y-51521009D01*
X128119047Y-51521009D02*
X128166666Y-51616247D01*
X128166666Y-51616247D02*
X128166666Y-51854342D01*
X128166666Y-51854342D02*
X128119047Y-51949580D01*
X128119047Y-51949580D02*
X128071428Y-51997200D01*
X128071428Y-51997200D02*
X127976190Y-52044819D01*
X127976190Y-52044819D02*
X127690476Y-52044819D01*
X127690476Y-52044819D02*
X127595238Y-51997200D01*
X127595238Y-51997200D02*
X127547619Y-51949580D01*
X123880952Y-60784819D02*
X124214285Y-61784819D01*
X124214285Y-61784819D02*
X124547618Y-60784819D01*
X124880952Y-60784819D02*
X124880952Y-61594342D01*
X124880952Y-61594342D02*
X124928571Y-61689580D01*
X124928571Y-61689580D02*
X124976190Y-61737200D01*
X124976190Y-61737200D02*
X125071428Y-61784819D01*
X125071428Y-61784819D02*
X125261904Y-61784819D01*
X125261904Y-61784819D02*
X125357142Y-61737200D01*
X125357142Y-61737200D02*
X125404761Y-61689580D01*
X125404761Y-61689580D02*
X125452380Y-61594342D01*
X125452380Y-61594342D02*
X125452380Y-60784819D01*
X125690476Y-61880057D02*
X126452380Y-61880057D01*
X126690476Y-61784819D02*
X126690476Y-60784819D01*
X127166666Y-61118152D02*
X127166666Y-61784819D01*
X127166666Y-61213390D02*
X127214285Y-61165771D01*
X127214285Y-61165771D02*
X127309523Y-61118152D01*
X127309523Y-61118152D02*
X127452380Y-61118152D01*
X127452380Y-61118152D02*
X127547618Y-61165771D01*
X127547618Y-61165771D02*
X127595237Y-61261009D01*
X127595237Y-61261009D02*
X127595237Y-61784819D01*
X128071428Y-61118152D02*
X128071428Y-62118152D01*
X128071428Y-61165771D02*
X128166666Y-61118152D01*
X128166666Y-61118152D02*
X128357142Y-61118152D01*
X128357142Y-61118152D02*
X128452380Y-61165771D01*
X128452380Y-61165771D02*
X128499999Y-61213390D01*
X128499999Y-61213390D02*
X128547618Y-61308628D01*
X128547618Y-61308628D02*
X128547618Y-61594342D01*
X128547618Y-61594342D02*
X128499999Y-61689580D01*
X128499999Y-61689580D02*
X128452380Y-61737200D01*
X128452380Y-61737200D02*
X128357142Y-61784819D01*
X128357142Y-61784819D02*
X128166666Y-61784819D01*
X128166666Y-61784819D02*
X128071428Y-61737200D01*
X129404761Y-61118152D02*
X129404761Y-61784819D01*
X128976190Y-61118152D02*
X128976190Y-61641961D01*
X128976190Y-61641961D02*
X129023809Y-61737200D01*
X129023809Y-61737200D02*
X129119047Y-61784819D01*
X129119047Y-61784819D02*
X129261904Y-61784819D01*
X129261904Y-61784819D02*
X129357142Y-61737200D01*
X129357142Y-61737200D02*
X129404761Y-61689580D01*
X129738095Y-61118152D02*
X130119047Y-61118152D01*
X129880952Y-60784819D02*
X129880952Y-61641961D01*
X129880952Y-61641961D02*
X129928571Y-61737200D01*
X129928571Y-61737200D02*
X130023809Y-61784819D01*
X130023809Y-61784819D02*
X130119047Y-61784819D01*
X96924819Y-38238094D02*
X95924819Y-38238094D01*
X95924819Y-38238094D02*
X95924819Y-37999999D01*
X95924819Y-37999999D02*
X95972438Y-37857142D01*
X95972438Y-37857142D02*
X96067676Y-37761904D01*
X96067676Y-37761904D02*
X96162914Y-37714285D01*
X96162914Y-37714285D02*
X96353390Y-37666666D01*
X96353390Y-37666666D02*
X96496247Y-37666666D01*
X96496247Y-37666666D02*
X96686723Y-37714285D01*
X96686723Y-37714285D02*
X96781961Y-37761904D01*
X96781961Y-37761904D02*
X96877200Y-37857142D01*
X96877200Y-37857142D02*
X96924819Y-37999999D01*
X96924819Y-37999999D02*
X96924819Y-38238094D01*
X96258152Y-36809523D02*
X96924819Y-36809523D01*
X95877200Y-37047618D02*
X96591485Y-37285713D01*
X96591485Y-37285713D02*
X96591485Y-36666666D01*
X111954819Y-38238094D02*
X110954819Y-38238094D01*
X110954819Y-38238094D02*
X110954819Y-37999999D01*
X110954819Y-37999999D02*
X111002438Y-37857142D01*
X111002438Y-37857142D02*
X111097676Y-37761904D01*
X111097676Y-37761904D02*
X111192914Y-37714285D01*
X111192914Y-37714285D02*
X111383390Y-37666666D01*
X111383390Y-37666666D02*
X111526247Y-37666666D01*
X111526247Y-37666666D02*
X111716723Y-37714285D01*
X111716723Y-37714285D02*
X111811961Y-37761904D01*
X111811961Y-37761904D02*
X111907200Y-37857142D01*
X111907200Y-37857142D02*
X111954819Y-37999999D01*
X111954819Y-37999999D02*
X111954819Y-38238094D01*
X111954819Y-37190475D02*
X111954819Y-36999999D01*
X111954819Y-36999999D02*
X111907200Y-36904761D01*
X111907200Y-36904761D02*
X111859580Y-36857142D01*
X111859580Y-36857142D02*
X111716723Y-36761904D01*
X111716723Y-36761904D02*
X111526247Y-36714285D01*
X111526247Y-36714285D02*
X111145295Y-36714285D01*
X111145295Y-36714285D02*
X111050057Y-36761904D01*
X111050057Y-36761904D02*
X111002438Y-36809523D01*
X111002438Y-36809523D02*
X110954819Y-36904761D01*
X110954819Y-36904761D02*
X110954819Y-37095237D01*
X110954819Y-37095237D02*
X111002438Y-37190475D01*
X111002438Y-37190475D02*
X111050057Y-37238094D01*
X111050057Y-37238094D02*
X111145295Y-37285713D01*
X111145295Y-37285713D02*
X111383390Y-37285713D01*
X111383390Y-37285713D02*
X111478628Y-37238094D01*
X111478628Y-37238094D02*
X111526247Y-37190475D01*
X111526247Y-37190475D02*
X111573866Y-37095237D01*
X111573866Y-37095237D02*
X111573866Y-36904761D01*
X111573866Y-36904761D02*
X111526247Y-36809523D01*
X111526247Y-36809523D02*
X111478628Y-36761904D01*
X111478628Y-36761904D02*
X111383390Y-36714285D01*
X89859580Y-73166666D02*
X89907200Y-73214285D01*
X89907200Y-73214285D02*
X89954819Y-73357142D01*
X89954819Y-73357142D02*
X89954819Y-73452380D01*
X89954819Y-73452380D02*
X89907200Y-73595237D01*
X89907200Y-73595237D02*
X89811961Y-73690475D01*
X89811961Y-73690475D02*
X89716723Y-73738094D01*
X89716723Y-73738094D02*
X89526247Y-73785713D01*
X89526247Y-73785713D02*
X89383390Y-73785713D01*
X89383390Y-73785713D02*
X89192914Y-73738094D01*
X89192914Y-73738094D02*
X89097676Y-73690475D01*
X89097676Y-73690475D02*
X89002438Y-73595237D01*
X89002438Y-73595237D02*
X88954819Y-73452380D01*
X88954819Y-73452380D02*
X88954819Y-73357142D01*
X88954819Y-73357142D02*
X89002438Y-73214285D01*
X89002438Y-73214285D02*
X89050057Y-73166666D01*
X89954819Y-72214285D02*
X89954819Y-72785713D01*
X89954819Y-72499999D02*
X88954819Y-72499999D01*
X88954819Y-72499999D02*
X89097676Y-72595237D01*
X89097676Y-72595237D02*
X89192914Y-72690475D01*
X89192914Y-72690475D02*
X89240533Y-72785713D01*
X101333333Y-98359580D02*
X101285714Y-98407200D01*
X101285714Y-98407200D02*
X101142857Y-98454819D01*
X101142857Y-98454819D02*
X101047619Y-98454819D01*
X101047619Y-98454819D02*
X100904762Y-98407200D01*
X100904762Y-98407200D02*
X100809524Y-98311961D01*
X100809524Y-98311961D02*
X100761905Y-98216723D01*
X100761905Y-98216723D02*
X100714286Y-98026247D01*
X100714286Y-98026247D02*
X100714286Y-97883390D01*
X100714286Y-97883390D02*
X100761905Y-97692914D01*
X100761905Y-97692914D02*
X100809524Y-97597676D01*
X100809524Y-97597676D02*
X100904762Y-97502438D01*
X100904762Y-97502438D02*
X101047619Y-97454819D01*
X101047619Y-97454819D02*
X101142857Y-97454819D01*
X101142857Y-97454819D02*
X101285714Y-97502438D01*
X101285714Y-97502438D02*
X101333333Y-97550057D01*
X101666667Y-97454819D02*
X102333333Y-97454819D01*
X102333333Y-97454819D02*
X101904762Y-98454819D01*
X119833333Y-74359580D02*
X119785714Y-74407200D01*
X119785714Y-74407200D02*
X119642857Y-74454819D01*
X119642857Y-74454819D02*
X119547619Y-74454819D01*
X119547619Y-74454819D02*
X119404762Y-74407200D01*
X119404762Y-74407200D02*
X119309524Y-74311961D01*
X119309524Y-74311961D02*
X119261905Y-74216723D01*
X119261905Y-74216723D02*
X119214286Y-74026247D01*
X119214286Y-74026247D02*
X119214286Y-73883390D01*
X119214286Y-73883390D02*
X119261905Y-73692914D01*
X119261905Y-73692914D02*
X119309524Y-73597676D01*
X119309524Y-73597676D02*
X119404762Y-73502438D01*
X119404762Y-73502438D02*
X119547619Y-73454819D01*
X119547619Y-73454819D02*
X119642857Y-73454819D01*
X119642857Y-73454819D02*
X119785714Y-73502438D01*
X119785714Y-73502438D02*
X119833333Y-73550057D01*
X120738095Y-73454819D02*
X120261905Y-73454819D01*
X120261905Y-73454819D02*
X120214286Y-73931009D01*
X120214286Y-73931009D02*
X120261905Y-73883390D01*
X120261905Y-73883390D02*
X120357143Y-73835771D01*
X120357143Y-73835771D02*
X120595238Y-73835771D01*
X120595238Y-73835771D02*
X120690476Y-73883390D01*
X120690476Y-73883390D02*
X120738095Y-73931009D01*
X120738095Y-73931009D02*
X120785714Y-74026247D01*
X120785714Y-74026247D02*
X120785714Y-74264342D01*
X120785714Y-74264342D02*
X120738095Y-74359580D01*
X120738095Y-74359580D02*
X120690476Y-74407200D01*
X120690476Y-74407200D02*
X120595238Y-74454819D01*
X120595238Y-74454819D02*
X120357143Y-74454819D01*
X120357143Y-74454819D02*
X120261905Y-74407200D01*
X120261905Y-74407200D02*
X120214286Y-74359580D01*
X99954819Y-38238094D02*
X98954819Y-38238094D01*
X98954819Y-38238094D02*
X98954819Y-37999999D01*
X98954819Y-37999999D02*
X99002438Y-37857142D01*
X99002438Y-37857142D02*
X99097676Y-37761904D01*
X99097676Y-37761904D02*
X99192914Y-37714285D01*
X99192914Y-37714285D02*
X99383390Y-37666666D01*
X99383390Y-37666666D02*
X99526247Y-37666666D01*
X99526247Y-37666666D02*
X99716723Y-37714285D01*
X99716723Y-37714285D02*
X99811961Y-37761904D01*
X99811961Y-37761904D02*
X99907200Y-37857142D01*
X99907200Y-37857142D02*
X99954819Y-37999999D01*
X99954819Y-37999999D02*
X99954819Y-38238094D01*
X98954819Y-36761904D02*
X98954819Y-37238094D01*
X98954819Y-37238094D02*
X99431009Y-37285713D01*
X99431009Y-37285713D02*
X99383390Y-37238094D01*
X99383390Y-37238094D02*
X99335771Y-37142856D01*
X99335771Y-37142856D02*
X99335771Y-36904761D01*
X99335771Y-36904761D02*
X99383390Y-36809523D01*
X99383390Y-36809523D02*
X99431009Y-36761904D01*
X99431009Y-36761904D02*
X99526247Y-36714285D01*
X99526247Y-36714285D02*
X99764342Y-36714285D01*
X99764342Y-36714285D02*
X99859580Y-36761904D01*
X99859580Y-36761904D02*
X99907200Y-36809523D01*
X99907200Y-36809523D02*
X99954819Y-36904761D01*
X99954819Y-36904761D02*
X99954819Y-37142856D01*
X99954819Y-37142856D02*
X99907200Y-37238094D01*
X99907200Y-37238094D02*
X99859580Y-37285713D01*
X87954819Y-38238094D02*
X86954819Y-38238094D01*
X86954819Y-38238094D02*
X86954819Y-37999999D01*
X86954819Y-37999999D02*
X87002438Y-37857142D01*
X87002438Y-37857142D02*
X87097676Y-37761904D01*
X87097676Y-37761904D02*
X87192914Y-37714285D01*
X87192914Y-37714285D02*
X87383390Y-37666666D01*
X87383390Y-37666666D02*
X87526247Y-37666666D01*
X87526247Y-37666666D02*
X87716723Y-37714285D01*
X87716723Y-37714285D02*
X87811961Y-37761904D01*
X87811961Y-37761904D02*
X87907200Y-37857142D01*
X87907200Y-37857142D02*
X87954819Y-37999999D01*
X87954819Y-37999999D02*
X87954819Y-38238094D01*
X87954819Y-36714285D02*
X87954819Y-37285713D01*
X87954819Y-36999999D02*
X86954819Y-36999999D01*
X86954819Y-36999999D02*
X87097676Y-37095237D01*
X87097676Y-37095237D02*
X87192914Y-37190475D01*
X87192914Y-37190475D02*
X87240533Y-37285713D01*
X66904761Y-60954819D02*
X66571428Y-60478628D01*
X66333333Y-60954819D02*
X66333333Y-59954819D01*
X66333333Y-59954819D02*
X66714285Y-59954819D01*
X66714285Y-59954819D02*
X66809523Y-60002438D01*
X66809523Y-60002438D02*
X66857142Y-60050057D01*
X66857142Y-60050057D02*
X66904761Y-60145295D01*
X66904761Y-60145295D02*
X66904761Y-60288152D01*
X66904761Y-60288152D02*
X66857142Y-60383390D01*
X66857142Y-60383390D02*
X66809523Y-60431009D01*
X66809523Y-60431009D02*
X66714285Y-60478628D01*
X66714285Y-60478628D02*
X66333333Y-60478628D01*
X67190476Y-59954819D02*
X67523809Y-60954819D01*
X67523809Y-60954819D02*
X67857142Y-59954819D01*
X68714285Y-60954819D02*
X68142857Y-60954819D01*
X68428571Y-60954819D02*
X68428571Y-59954819D01*
X68428571Y-59954819D02*
X68333333Y-60097676D01*
X68333333Y-60097676D02*
X68238095Y-60192914D01*
X68238095Y-60192914D02*
X68142857Y-60240533D01*
X66285714Y-62454819D02*
X65714286Y-62454819D01*
X66000000Y-62454819D02*
X66000000Y-61454819D01*
X66000000Y-61454819D02*
X65904762Y-61597676D01*
X65904762Y-61597676D02*
X65809524Y-61692914D01*
X65809524Y-61692914D02*
X65714286Y-61740533D01*
X66904762Y-61454819D02*
X67000000Y-61454819D01*
X67000000Y-61454819D02*
X67095238Y-61502438D01*
X67095238Y-61502438D02*
X67142857Y-61550057D01*
X67142857Y-61550057D02*
X67190476Y-61645295D01*
X67190476Y-61645295D02*
X67238095Y-61835771D01*
X67238095Y-61835771D02*
X67238095Y-62073866D01*
X67238095Y-62073866D02*
X67190476Y-62264342D01*
X67190476Y-62264342D02*
X67142857Y-62359580D01*
X67142857Y-62359580D02*
X67095238Y-62407200D01*
X67095238Y-62407200D02*
X67000000Y-62454819D01*
X67000000Y-62454819D02*
X66904762Y-62454819D01*
X66904762Y-62454819D02*
X66809524Y-62407200D01*
X66809524Y-62407200D02*
X66761905Y-62359580D01*
X66761905Y-62359580D02*
X66714286Y-62264342D01*
X66714286Y-62264342D02*
X66666667Y-62073866D01*
X66666667Y-62073866D02*
X66666667Y-61835771D01*
X66666667Y-61835771D02*
X66714286Y-61645295D01*
X66714286Y-61645295D02*
X66761905Y-61550057D01*
X66761905Y-61550057D02*
X66809524Y-61502438D01*
X66809524Y-61502438D02*
X66904762Y-61454819D01*
X67857143Y-61454819D02*
X67952381Y-61454819D01*
X67952381Y-61454819D02*
X68047619Y-61502438D01*
X68047619Y-61502438D02*
X68095238Y-61550057D01*
X68095238Y-61550057D02*
X68142857Y-61645295D01*
X68142857Y-61645295D02*
X68190476Y-61835771D01*
X68190476Y-61835771D02*
X68190476Y-62073866D01*
X68190476Y-62073866D02*
X68142857Y-62264342D01*
X68142857Y-62264342D02*
X68095238Y-62359580D01*
X68095238Y-62359580D02*
X68047619Y-62407200D01*
X68047619Y-62407200D02*
X67952381Y-62454819D01*
X67952381Y-62454819D02*
X67857143Y-62454819D01*
X67857143Y-62454819D02*
X67761905Y-62407200D01*
X67761905Y-62407200D02*
X67714286Y-62359580D01*
X67714286Y-62359580D02*
X67666667Y-62264342D01*
X67666667Y-62264342D02*
X67619048Y-62073866D01*
X67619048Y-62073866D02*
X67619048Y-61835771D01*
X67619048Y-61835771D02*
X67666667Y-61645295D01*
X67666667Y-61645295D02*
X67714286Y-61550057D01*
X67714286Y-61550057D02*
X67761905Y-61502438D01*
X67761905Y-61502438D02*
X67857143Y-61454819D01*
X68619048Y-62454819D02*
X68619048Y-61454819D01*
X68714286Y-62073866D02*
X69000000Y-62454819D01*
X69000000Y-61788152D02*
X68619048Y-62169104D01*
X69619048Y-61454819D02*
X69809524Y-61454819D01*
X69809524Y-61454819D02*
X69904762Y-61502438D01*
X69904762Y-61502438D02*
X70000000Y-61597676D01*
X70000000Y-61597676D02*
X70047619Y-61788152D01*
X70047619Y-61788152D02*
X70047619Y-62121485D01*
X70047619Y-62121485D02*
X70000000Y-62311961D01*
X70000000Y-62311961D02*
X69904762Y-62407200D01*
X69904762Y-62407200D02*
X69809524Y-62454819D01*
X69809524Y-62454819D02*
X69619048Y-62454819D01*
X69619048Y-62454819D02*
X69523810Y-62407200D01*
X69523810Y-62407200D02*
X69428572Y-62311961D01*
X69428572Y-62311961D02*
X69380953Y-62121485D01*
X69380953Y-62121485D02*
X69380953Y-61788152D01*
X69380953Y-61788152D02*
X69428572Y-61597676D01*
X69428572Y-61597676D02*
X69523810Y-61502438D01*
X69523810Y-61502438D02*
X69619048Y-61454819D01*
X70476191Y-62454819D02*
X70476191Y-61454819D01*
X70904762Y-62454819D02*
X70904762Y-61931009D01*
X70904762Y-61931009D02*
X70857143Y-61835771D01*
X70857143Y-61835771D02*
X70761905Y-61788152D01*
X70761905Y-61788152D02*
X70619048Y-61788152D01*
X70619048Y-61788152D02*
X70523810Y-61835771D01*
X70523810Y-61835771D02*
X70476191Y-61883390D01*
X71380953Y-62454819D02*
X71380953Y-61788152D01*
X71380953Y-61883390D02*
X71428572Y-61835771D01*
X71428572Y-61835771D02*
X71523810Y-61788152D01*
X71523810Y-61788152D02*
X71666667Y-61788152D01*
X71666667Y-61788152D02*
X71761905Y-61835771D01*
X71761905Y-61835771D02*
X71809524Y-61931009D01*
X71809524Y-61931009D02*
X71809524Y-62454819D01*
X71809524Y-61931009D02*
X71857143Y-61835771D01*
X71857143Y-61835771D02*
X71952381Y-61788152D01*
X71952381Y-61788152D02*
X72095238Y-61788152D01*
X72095238Y-61788152D02*
X72190477Y-61835771D01*
X72190477Y-61835771D02*
X72238096Y-61931009D01*
X72238096Y-61931009D02*
X72238096Y-62454819D01*
D12*
%TO.C,J4*%
X125670000Y-64670000D02*
X127000000Y-64670000D01*
X125670000Y-66000000D02*
X125670000Y-64670000D01*
X125670000Y-67270000D02*
X125670000Y-67330000D01*
X125670000Y-67270000D02*
X128330000Y-67270000D01*
X125670000Y-67330000D02*
X128330000Y-67330000D01*
X128330000Y-67270000D02*
X128330000Y-67330000D01*
%TO.C,Y1*%
X60430000Y-39300000D02*
X60430000Y-50700000D01*
X61180000Y-51450000D02*
X80580000Y-51450000D01*
X81330000Y-38550000D02*
X61180000Y-38550000D01*
X81330000Y-50700000D02*
X81330000Y-38550000D01*
X60430000Y-39300000D02*
G75*
G02*
X61180000Y-38550000I750000J0D01*
G01*
X61180000Y-51450000D02*
G75*
G02*
X60430000Y-50700000I0J750000D01*
G01*
X81330000Y-50700000D02*
G75*
G02*
X80580000Y-51450000I-750000J0D01*
G01*
%TO.C,JP2*%
X116670000Y-31145000D02*
X118000000Y-31145000D01*
X116670000Y-32475000D02*
X116670000Y-31145000D01*
X116670000Y-33745000D02*
X116670000Y-38885000D01*
X116670000Y-33745000D02*
X119330000Y-33745000D01*
X116670000Y-38885000D02*
X119330000Y-38885000D01*
X119330000Y-33745000D02*
X119330000Y-38885000D01*
%TO.C,R3*%
X99880000Y-95000000D02*
X100650000Y-95000000D01*
X100650000Y-93630000D02*
X100650000Y-96370000D01*
X100650000Y-96370000D02*
X107190000Y-96370000D01*
X107190000Y-93630000D02*
X100650000Y-93630000D01*
X107190000Y-96370000D02*
X107190000Y-93630000D01*
X107960000Y-95000000D02*
X107190000Y-95000000D01*
%TO.C,osc*%
X68240000Y-39300000D02*
X68240000Y-50700000D01*
X68990000Y-51450000D02*
X80390000Y-51450000D01*
X81140000Y-38550000D02*
X68990000Y-38550000D01*
X81140000Y-50700000D02*
X81140000Y-38550000D01*
X68240000Y-39300000D02*
G75*
G02*
X68990000Y-38550000I750000J0D01*
G01*
X68990000Y-51450000D02*
G75*
G02*
X68240000Y-50700000I0J750000D01*
G01*
X81140000Y-50700000D02*
G75*
G02*
X80390000Y-51450000I-750000J0D01*
G01*
%TO.C,C3*%
X91030000Y-87130000D02*
X91030000Y-87445000D01*
X91030000Y-87130000D02*
X95970000Y-87130000D01*
X91030000Y-89555000D02*
X91030000Y-89870000D01*
X91030000Y-89870000D02*
X95970000Y-89870000D01*
X95970000Y-87130000D02*
X95970000Y-87445000D01*
X95970000Y-89555000D02*
X95970000Y-89870000D01*
%TO.C,U2*%
X90215112Y-41845000D02*
X90215112Y-43495000D01*
X90215112Y-45495000D02*
X90215112Y-47145000D01*
X90215112Y-47145000D02*
X113195112Y-47145000D01*
X113195112Y-41845000D02*
X90215112Y-41845000D01*
X113195112Y-47145000D02*
X113195112Y-41845000D01*
X90215112Y-43495000D02*
G75*
G02*
X90215112Y-45495000I0J-1000000D01*
G01*
%TO.C,D10*%
X113440000Y-31210000D02*
X115560000Y-31210000D01*
X113440000Y-32109000D02*
X113440000Y-31210000D01*
X113440000Y-33960000D02*
X113440000Y-32890000D01*
X113440000Y-36210000D02*
X115560000Y-36210000D01*
X113440000Y-36330000D02*
X113440000Y-36120000D01*
X113440000Y-36330000D02*
X115560000Y-36330000D01*
X115560000Y-32109000D02*
X115560000Y-31210000D01*
X115560000Y-33960000D02*
X115560000Y-32890000D01*
X115560000Y-36330000D02*
X115560000Y-36120000D01*
%TO.C,U1*%
X100440000Y-82360000D02*
X100440000Y-92640000D01*
X100440000Y-92640000D02*
X104940000Y-92640000D01*
X101690000Y-82360000D02*
X100440000Y-82360000D01*
X104940000Y-82360000D02*
X103690000Y-82360000D01*
X104940000Y-92640000D02*
X104940000Y-82360000D01*
X103690000Y-82360000D02*
G75*
G02*
X101690000Y-82360000I-1000000J0D01*
G01*
%TO.C,D11*%
X96760000Y-52000000D02*
X97780000Y-52000000D01*
X97780000Y-50530000D02*
X97780000Y-53470000D01*
X97780000Y-53470000D02*
X103220000Y-53470000D01*
X98560000Y-50530000D02*
X98560000Y-53470000D01*
X98680000Y-50530000D02*
X98680000Y-53470000D01*
X98800000Y-50530000D02*
X98800000Y-53470000D01*
X103220000Y-50530000D02*
X97780000Y-50530000D01*
X103220000Y-53470000D02*
X103220000Y-50530000D01*
X104240000Y-52000000D02*
X103220000Y-52000000D01*
%TO.C,R2*%
X101960000Y-66500000D02*
X102730000Y-66500000D01*
X102730000Y-65130000D02*
X102730000Y-67870000D01*
X102730000Y-67870000D02*
X109270000Y-67870000D01*
X109270000Y-65130000D02*
X102730000Y-65130000D01*
X109270000Y-67870000D02*
X109270000Y-65130000D01*
X110040000Y-66500000D02*
X109270000Y-66500000D01*
%TO.C,J3*%
X121380000Y-34780000D02*
X123280000Y-34780000D01*
X121380000Y-49020000D02*
X121380000Y-34780000D01*
X123280000Y-30780000D02*
X129520000Y-30780000D01*
X123280000Y-34780000D02*
X123280000Y-30780000D01*
X129520000Y-30780000D02*
X129520000Y-34780000D01*
X129520000Y-34780000D02*
X129820000Y-34780000D01*
X129820000Y-34780000D02*
X129820000Y-49020000D01*
X129820000Y-49020000D02*
X121380000Y-49020000D01*
%TO.C,C6*%
X102240113Y-76525000D02*
X102740113Y-76525000D01*
X102490113Y-76275000D02*
X102490113Y-76775000D01*
X105044888Y-75420000D02*
X105044888Y-80580000D01*
X105084888Y-75420000D02*
X105084888Y-80580000D01*
X105124888Y-75421000D02*
X105124888Y-80579000D01*
X105164888Y-75422000D02*
X105164888Y-80578000D01*
X105204888Y-75424000D02*
X105204888Y-80576000D01*
X105244888Y-75427000D02*
X105244888Y-80573000D01*
X105284888Y-75431000D02*
X105284888Y-76960000D01*
X105284888Y-79040000D02*
X105284888Y-80569000D01*
X105324888Y-75435000D02*
X105324888Y-76960000D01*
X105324888Y-79040000D02*
X105324888Y-80565000D01*
X105364888Y-75439000D02*
X105364888Y-76960000D01*
X105364888Y-79040000D02*
X105364888Y-80561000D01*
X105404888Y-75444000D02*
X105404888Y-76960000D01*
X105404888Y-79040000D02*
X105404888Y-80556000D01*
X105444888Y-75450000D02*
X105444888Y-76960000D01*
X105444888Y-79040000D02*
X105444888Y-80550000D01*
X105484888Y-75457000D02*
X105484888Y-76960000D01*
X105484888Y-79040000D02*
X105484888Y-80543000D01*
X105524888Y-75464000D02*
X105524888Y-76960000D01*
X105524888Y-79040000D02*
X105524888Y-80536000D01*
X105564888Y-75472000D02*
X105564888Y-76960000D01*
X105564888Y-79040000D02*
X105564888Y-80528000D01*
X105604888Y-75480000D02*
X105604888Y-76960000D01*
X105604888Y-79040000D02*
X105604888Y-80520000D01*
X105644888Y-75489000D02*
X105644888Y-76960000D01*
X105644888Y-79040000D02*
X105644888Y-80511000D01*
X105684888Y-75499000D02*
X105684888Y-76960000D01*
X105684888Y-79040000D02*
X105684888Y-80501000D01*
X105724888Y-75509000D02*
X105724888Y-76960000D01*
X105724888Y-79040000D02*
X105724888Y-80491000D01*
X105765888Y-75520000D02*
X105765888Y-76960000D01*
X105765888Y-79040000D02*
X105765888Y-80480000D01*
X105805888Y-75532000D02*
X105805888Y-76960000D01*
X105805888Y-79040000D02*
X105805888Y-80468000D01*
X105845888Y-75545000D02*
X105845888Y-76960000D01*
X105845888Y-79040000D02*
X105845888Y-80455000D01*
X105885888Y-75558000D02*
X105885888Y-76960000D01*
X105885888Y-79040000D02*
X105885888Y-80442000D01*
X105925888Y-75572000D02*
X105925888Y-76960000D01*
X105925888Y-79040000D02*
X105925888Y-80428000D01*
X105965888Y-75586000D02*
X105965888Y-76960000D01*
X105965888Y-79040000D02*
X105965888Y-80414000D01*
X106005888Y-75602000D02*
X106005888Y-76960000D01*
X106005888Y-79040000D02*
X106005888Y-80398000D01*
X106045888Y-75618000D02*
X106045888Y-76960000D01*
X106045888Y-79040000D02*
X106045888Y-80382000D01*
X106085888Y-75635000D02*
X106085888Y-76960000D01*
X106085888Y-79040000D02*
X106085888Y-80365000D01*
X106125888Y-75652000D02*
X106125888Y-76960000D01*
X106125888Y-79040000D02*
X106125888Y-80348000D01*
X106165888Y-75671000D02*
X106165888Y-76960000D01*
X106165888Y-79040000D02*
X106165888Y-80329000D01*
X106205888Y-75690000D02*
X106205888Y-76960000D01*
X106205888Y-79040000D02*
X106205888Y-80310000D01*
X106245888Y-75710000D02*
X106245888Y-76960000D01*
X106245888Y-79040000D02*
X106245888Y-80290000D01*
X106285888Y-75732000D02*
X106285888Y-76960000D01*
X106285888Y-79040000D02*
X106285888Y-80268000D01*
X106325888Y-75753000D02*
X106325888Y-76960000D01*
X106325888Y-79040000D02*
X106325888Y-80247000D01*
X106365888Y-75776000D02*
X106365888Y-76960000D01*
X106365888Y-79040000D02*
X106365888Y-80224000D01*
X106405888Y-75800000D02*
X106405888Y-76960000D01*
X106405888Y-79040000D02*
X106405888Y-80200000D01*
X106445888Y-75825000D02*
X106445888Y-76960000D01*
X106445888Y-79040000D02*
X106445888Y-80175000D01*
X106485888Y-75851000D02*
X106485888Y-76960000D01*
X106485888Y-79040000D02*
X106485888Y-80149000D01*
X106525888Y-75878000D02*
X106525888Y-76960000D01*
X106525888Y-79040000D02*
X106525888Y-80122000D01*
X106565888Y-75905000D02*
X106565888Y-76960000D01*
X106565888Y-79040000D02*
X106565888Y-80095000D01*
X106605888Y-75935000D02*
X106605888Y-76960000D01*
X106605888Y-79040000D02*
X106605888Y-80065000D01*
X106645888Y-75965000D02*
X106645888Y-76960000D01*
X106645888Y-79040000D02*
X106645888Y-80035000D01*
X106685888Y-75996000D02*
X106685888Y-76960000D01*
X106685888Y-79040000D02*
X106685888Y-80004000D01*
X106725888Y-76029000D02*
X106725888Y-76960000D01*
X106725888Y-79040000D02*
X106725888Y-79971000D01*
X106765888Y-76063000D02*
X106765888Y-76960000D01*
X106765888Y-79040000D02*
X106765888Y-79937000D01*
X106805888Y-76099000D02*
X106805888Y-76960000D01*
X106805888Y-79040000D02*
X106805888Y-79901000D01*
X106845888Y-76136000D02*
X106845888Y-76960000D01*
X106845888Y-79040000D02*
X106845888Y-79864000D01*
X106885888Y-76174000D02*
X106885888Y-76960000D01*
X106885888Y-79040000D02*
X106885888Y-79826000D01*
X106925888Y-76215000D02*
X106925888Y-76960000D01*
X106925888Y-79040000D02*
X106925888Y-79785000D01*
X106965888Y-76257000D02*
X106965888Y-76960000D01*
X106965888Y-79040000D02*
X106965888Y-79743000D01*
X107005888Y-76301000D02*
X107005888Y-76960000D01*
X107005888Y-79040000D02*
X107005888Y-79699000D01*
X107045888Y-76347000D02*
X107045888Y-76960000D01*
X107045888Y-79040000D02*
X107045888Y-79653000D01*
X107085888Y-76395000D02*
X107085888Y-76960000D01*
X107085888Y-79040000D02*
X107085888Y-79605000D01*
X107125888Y-76446000D02*
X107125888Y-76960000D01*
X107125888Y-79040000D02*
X107125888Y-79554000D01*
X107165888Y-76500000D02*
X107165888Y-76960000D01*
X107165888Y-79040000D02*
X107165888Y-79500000D01*
X107205888Y-76557000D02*
X107205888Y-76960000D01*
X107205888Y-79040000D02*
X107205888Y-79443000D01*
X107245888Y-76617000D02*
X107245888Y-76960000D01*
X107245888Y-79040000D02*
X107245888Y-79383000D01*
X107285888Y-76681000D02*
X107285888Y-76960000D01*
X107285888Y-79040000D02*
X107285888Y-79319000D01*
X107325888Y-76749000D02*
X107325888Y-76960000D01*
X107325888Y-79040000D02*
X107325888Y-79251000D01*
X107365888Y-76822000D02*
X107365888Y-79178000D01*
X107405888Y-76902000D02*
X107405888Y-79098000D01*
X107445888Y-76989000D02*
X107445888Y-79011000D01*
X107485888Y-77085000D02*
X107485888Y-78915000D01*
X107525888Y-77195000D02*
X107525888Y-78805000D01*
X107565888Y-77323000D02*
X107565888Y-78677000D01*
X107605888Y-77482000D02*
X107605888Y-78518000D01*
X107645888Y-77716000D02*
X107645888Y-78284000D01*
X107664888Y-78000000D02*
G75*
G02*
X102424888Y-78000000I-2620000J0D01*
G01*
X102424888Y-78000000D02*
G75*
G02*
X107664888Y-78000000I2620000J0D01*
G01*
%TO.C,C4*%
X90530000Y-82130000D02*
X90530000Y-82445000D01*
X90530000Y-82130000D02*
X95470000Y-82130000D01*
X90530000Y-84555000D02*
X90530000Y-84870000D01*
X90530000Y-84870000D02*
X95470000Y-84870000D01*
X95470000Y-82130000D02*
X95470000Y-82445000D01*
X95470000Y-84555000D02*
X95470000Y-84870000D01*
%TO.C,C2*%
X89880000Y-76380000D02*
X89880000Y-81620000D01*
X89880000Y-76380000D02*
X101120000Y-76380000D01*
X89880000Y-81620000D02*
X101120000Y-81620000D01*
X101120000Y-76380000D02*
X101120000Y-81620000D01*
%TO.C,D3*%
X92440000Y-31170000D02*
X94560000Y-31170000D01*
X92440000Y-32069000D02*
X92440000Y-31170000D01*
X92440000Y-33920000D02*
X92440000Y-32850000D01*
X92440000Y-36170000D02*
X94560000Y-36170000D01*
X92440000Y-36290000D02*
X92440000Y-36080000D01*
X92440000Y-36290000D02*
X94560000Y-36290000D01*
X94560000Y-32069000D02*
X94560000Y-31170000D01*
X94560000Y-33920000D02*
X94560000Y-32850000D01*
X94560000Y-36290000D02*
X94560000Y-36080000D01*
%TO.C,U4*%
X92280000Y-56845000D02*
X92280000Y-58495000D01*
X92280000Y-60495000D02*
X92280000Y-62145000D01*
X92280000Y-62145000D02*
X112720000Y-62145000D01*
X112720000Y-56845000D02*
X92280000Y-56845000D01*
X112720000Y-62145000D02*
X112720000Y-56845000D01*
X92280000Y-58495000D02*
G75*
G02*
X92280000Y-60495000I0J-1000000D01*
G01*
%TO.C,R1*%
X111630000Y-71230000D02*
X111630000Y-77770000D01*
X111630000Y-77770000D02*
X114370000Y-77770000D01*
X113000000Y-70460000D02*
X113000000Y-71230000D01*
X113000000Y-78540000D02*
X113000000Y-77770000D01*
X114370000Y-71230000D02*
X111630000Y-71230000D01*
X114370000Y-77770000D02*
X114370000Y-71230000D01*
%TO.C,C9*%
X119130000Y-61530000D02*
X119130000Y-66470000D01*
X119445000Y-61530000D02*
X119130000Y-61530000D01*
X119445000Y-66470000D02*
X119130000Y-66470000D01*
X121870000Y-61530000D02*
X121555000Y-61530000D01*
X121870000Y-61530000D02*
X121870000Y-66470000D01*
X121870000Y-66470000D02*
X121555000Y-66470000D01*
%TO.C,C8*%
X109020354Y-87625000D02*
X110020354Y-87625000D01*
X109520354Y-87125000D02*
X109520354Y-88125000D01*
X114500000Y-85420000D02*
X114500000Y-95580000D01*
X114540000Y-85420000D02*
X114540000Y-95580000D01*
X114580000Y-85420000D02*
X114580000Y-95580000D01*
X114620000Y-85421000D02*
X114620000Y-95579000D01*
X114660000Y-85422000D02*
X114660000Y-95578000D01*
X114700000Y-85423000D02*
X114700000Y-95577000D01*
X114740000Y-85425000D02*
X114740000Y-95575000D01*
X114780000Y-85427000D02*
X114780000Y-95573000D01*
X114820000Y-85430000D02*
X114820000Y-95570000D01*
X114860000Y-85432000D02*
X114860000Y-95568000D01*
X114900000Y-85435000D02*
X114900000Y-95565000D01*
X114940000Y-85438000D02*
X114940000Y-95562000D01*
X114980000Y-85442000D02*
X114980000Y-95558000D01*
X115020000Y-85446000D02*
X115020000Y-95554000D01*
X115060000Y-85450000D02*
X115060000Y-95550000D01*
X115100000Y-85455000D02*
X115100000Y-95545000D01*
X115140000Y-85460000D02*
X115140000Y-95540000D01*
X115180000Y-85465000D02*
X115180000Y-95535000D01*
X115221000Y-85470000D02*
X115221000Y-95530000D01*
X115261000Y-85476000D02*
X115261000Y-95524000D01*
X115301000Y-85482000D02*
X115301000Y-95518000D01*
X115341000Y-85489000D02*
X115341000Y-95511000D01*
X115381000Y-85496000D02*
X115381000Y-95504000D01*
X115421000Y-85503000D02*
X115421000Y-95497000D01*
X115461000Y-85510000D02*
X115461000Y-95490000D01*
X115501000Y-85518000D02*
X115501000Y-95482000D01*
X115541000Y-85526000D02*
X115541000Y-95474000D01*
X115581000Y-85535000D02*
X115581000Y-95465000D01*
X115621000Y-85544000D02*
X115621000Y-95456000D01*
X115661000Y-85553000D02*
X115661000Y-95447000D01*
X115701000Y-85562000D02*
X115701000Y-95438000D01*
X115741000Y-85572000D02*
X115741000Y-95428000D01*
X115781000Y-85582000D02*
X115781000Y-89259000D01*
X115781000Y-91741000D02*
X115781000Y-95418000D01*
X115821000Y-85593000D02*
X115821000Y-89259000D01*
X115821000Y-91741000D02*
X115821000Y-95407000D01*
X115861000Y-85603000D02*
X115861000Y-89259000D01*
X115861000Y-91741000D02*
X115861000Y-95397000D01*
X115901000Y-85615000D02*
X115901000Y-89259000D01*
X115901000Y-91741000D02*
X115901000Y-95385000D01*
X115941000Y-85626000D02*
X115941000Y-89259000D01*
X115941000Y-91741000D02*
X115941000Y-95374000D01*
X115981000Y-85638000D02*
X115981000Y-89259000D01*
X115981000Y-91741000D02*
X115981000Y-95362000D01*
X116021000Y-85650000D02*
X116021000Y-89259000D01*
X116021000Y-91741000D02*
X116021000Y-95350000D01*
X116061000Y-85663000D02*
X116061000Y-89259000D01*
X116061000Y-91741000D02*
X116061000Y-95337000D01*
X116101000Y-85676000D02*
X116101000Y-89259000D01*
X116101000Y-91741000D02*
X116101000Y-95324000D01*
X116141000Y-85689000D02*
X116141000Y-89259000D01*
X116141000Y-91741000D02*
X116141000Y-95311000D01*
X116181000Y-85703000D02*
X116181000Y-89259000D01*
X116181000Y-91741000D02*
X116181000Y-95297000D01*
X116221000Y-85717000D02*
X116221000Y-89259000D01*
X116221000Y-91741000D02*
X116221000Y-95283000D01*
X116261000Y-85732000D02*
X116261000Y-89259000D01*
X116261000Y-91741000D02*
X116261000Y-95268000D01*
X116301000Y-85746000D02*
X116301000Y-89259000D01*
X116301000Y-91741000D02*
X116301000Y-95254000D01*
X116341000Y-85762000D02*
X116341000Y-89259000D01*
X116341000Y-91741000D02*
X116341000Y-95238000D01*
X116381000Y-85777000D02*
X116381000Y-89259000D01*
X116381000Y-91741000D02*
X116381000Y-95223000D01*
X116421000Y-85793000D02*
X116421000Y-89259000D01*
X116421000Y-91741000D02*
X116421000Y-95207000D01*
X116461000Y-85810000D02*
X116461000Y-89259000D01*
X116461000Y-91741000D02*
X116461000Y-95190000D01*
X116501000Y-85826000D02*
X116501000Y-89259000D01*
X116501000Y-91741000D02*
X116501000Y-95174000D01*
X116541000Y-85843000D02*
X116541000Y-89259000D01*
X116541000Y-91741000D02*
X116541000Y-95157000D01*
X116581000Y-85861000D02*
X116581000Y-89259000D01*
X116581000Y-91741000D02*
X116581000Y-95139000D01*
X116621000Y-85879000D02*
X116621000Y-89259000D01*
X116621000Y-91741000D02*
X116621000Y-95121000D01*
X116661000Y-85897000D02*
X116661000Y-89259000D01*
X116661000Y-91741000D02*
X116661000Y-95103000D01*
X116701000Y-85916000D02*
X116701000Y-89259000D01*
X116701000Y-91741000D02*
X116701000Y-95084000D01*
X116741000Y-85936000D02*
X116741000Y-89259000D01*
X116741000Y-91741000D02*
X116741000Y-95064000D01*
X116781000Y-85955000D02*
X116781000Y-89259000D01*
X116781000Y-91741000D02*
X116781000Y-95045000D01*
X116821000Y-85975000D02*
X116821000Y-89259000D01*
X116821000Y-91741000D02*
X116821000Y-95025000D01*
X116861000Y-85996000D02*
X116861000Y-89259000D01*
X116861000Y-91741000D02*
X116861000Y-95004000D01*
X116901000Y-86017000D02*
X116901000Y-89259000D01*
X116901000Y-91741000D02*
X116901000Y-94983000D01*
X116941000Y-86038000D02*
X116941000Y-89259000D01*
X116941000Y-91741000D02*
X116941000Y-94962000D01*
X116981000Y-86060000D02*
X116981000Y-89259000D01*
X116981000Y-91741000D02*
X116981000Y-94940000D01*
X117021000Y-86083000D02*
X117021000Y-89259000D01*
X117021000Y-91741000D02*
X117021000Y-94917000D01*
X117061000Y-86105000D02*
X117061000Y-89259000D01*
X117061000Y-91741000D02*
X117061000Y-94895000D01*
X117101000Y-86129000D02*
X117101000Y-89259000D01*
X117101000Y-91741000D02*
X117101000Y-94871000D01*
X117141000Y-86153000D02*
X117141000Y-89259000D01*
X117141000Y-91741000D02*
X117141000Y-94847000D01*
X117181000Y-86177000D02*
X117181000Y-89259000D01*
X117181000Y-91741000D02*
X117181000Y-94823000D01*
X117221000Y-86202000D02*
X117221000Y-89259000D01*
X117221000Y-91741000D02*
X117221000Y-94798000D01*
X117261000Y-86227000D02*
X117261000Y-89259000D01*
X117261000Y-91741000D02*
X117261000Y-94773000D01*
X117301000Y-86253000D02*
X117301000Y-89259000D01*
X117301000Y-91741000D02*
X117301000Y-94747000D01*
X117341000Y-86279000D02*
X117341000Y-89259000D01*
X117341000Y-91741000D02*
X117341000Y-94721000D01*
X117381000Y-86306000D02*
X117381000Y-89259000D01*
X117381000Y-91741000D02*
X117381000Y-94694000D01*
X117421000Y-86334000D02*
X117421000Y-89259000D01*
X117421000Y-91741000D02*
X117421000Y-94666000D01*
X117461000Y-86362000D02*
X117461000Y-89259000D01*
X117461000Y-91741000D02*
X117461000Y-94638000D01*
X117501000Y-86390000D02*
X117501000Y-89259000D01*
X117501000Y-91741000D02*
X117501000Y-94610000D01*
X117541000Y-86420000D02*
X117541000Y-89259000D01*
X117541000Y-91741000D02*
X117541000Y-94580000D01*
X117581000Y-86450000D02*
X117581000Y-89259000D01*
X117581000Y-91741000D02*
X117581000Y-94550000D01*
X117621000Y-86480000D02*
X117621000Y-89259000D01*
X117621000Y-91741000D02*
X117621000Y-94520000D01*
X117661000Y-86511000D02*
X117661000Y-89259000D01*
X117661000Y-91741000D02*
X117661000Y-94489000D01*
X117701000Y-86543000D02*
X117701000Y-89259000D01*
X117701000Y-91741000D02*
X117701000Y-94457000D01*
X117741000Y-86575000D02*
X117741000Y-89259000D01*
X117741000Y-91741000D02*
X117741000Y-94425000D01*
X117781000Y-86608000D02*
X117781000Y-89259000D01*
X117781000Y-91741000D02*
X117781000Y-94392000D01*
X117821000Y-86642000D02*
X117821000Y-89259000D01*
X117821000Y-91741000D02*
X117821000Y-94358000D01*
X117861000Y-86676000D02*
X117861000Y-89259000D01*
X117861000Y-91741000D02*
X117861000Y-94324000D01*
X117901000Y-86711000D02*
X117901000Y-89259000D01*
X117901000Y-91741000D02*
X117901000Y-94289000D01*
X117941000Y-86747000D02*
X117941000Y-89259000D01*
X117941000Y-91741000D02*
X117941000Y-94253000D01*
X117981000Y-86784000D02*
X117981000Y-89259000D01*
X117981000Y-91741000D02*
X117981000Y-94216000D01*
X118021000Y-86821000D02*
X118021000Y-89259000D01*
X118021000Y-91741000D02*
X118021000Y-94179000D01*
X118061000Y-86860000D02*
X118061000Y-89259000D01*
X118061000Y-91741000D02*
X118061000Y-94140000D01*
X118101000Y-86899000D02*
X118101000Y-89259000D01*
X118101000Y-91741000D02*
X118101000Y-94101000D01*
X118141000Y-86939000D02*
X118141000Y-89259000D01*
X118141000Y-91741000D02*
X118141000Y-94061000D01*
X118181000Y-86980000D02*
X118181000Y-89259000D01*
X118181000Y-91741000D02*
X118181000Y-94020000D01*
X118221000Y-87022000D02*
X118221000Y-89259000D01*
X118221000Y-91741000D02*
X118221000Y-93978000D01*
X118261000Y-87064000D02*
X118261000Y-93936000D01*
X118301000Y-87108000D02*
X118301000Y-93892000D01*
X118341000Y-87153000D02*
X118341000Y-93847000D01*
X118381000Y-87199000D02*
X118381000Y-93801000D01*
X118421000Y-87246000D02*
X118421000Y-93754000D01*
X118461000Y-87294000D02*
X118461000Y-93706000D01*
X118501000Y-87344000D02*
X118501000Y-93656000D01*
X118541000Y-87394000D02*
X118541000Y-93606000D01*
X118581000Y-87446000D02*
X118581000Y-93554000D01*
X118621000Y-87500000D02*
X118621000Y-93500000D01*
X118661000Y-87555000D02*
X118661000Y-93445000D01*
X118701000Y-87611000D02*
X118701000Y-93389000D01*
X118741000Y-87670000D02*
X118741000Y-93330000D01*
X118781000Y-87730000D02*
X118781000Y-93270000D01*
X118821000Y-87791000D02*
X118821000Y-93209000D01*
X118861000Y-87855000D02*
X118861000Y-93145000D01*
X118901000Y-87921000D02*
X118901000Y-93079000D01*
X118941000Y-87990000D02*
X118941000Y-93010000D01*
X118981000Y-88061000D02*
X118981000Y-92939000D01*
X119021000Y-88135000D02*
X119021000Y-92865000D01*
X119061000Y-88211000D02*
X119061000Y-92789000D01*
X119101000Y-88291000D02*
X119101000Y-92709000D01*
X119141000Y-88375000D02*
X119141000Y-92625000D01*
X119181000Y-88463000D02*
X119181000Y-92537000D01*
X119221000Y-88556000D02*
X119221000Y-92444000D01*
X119261000Y-88654000D02*
X119261000Y-92346000D01*
X119301000Y-88758000D02*
X119301000Y-92242000D01*
X119341000Y-88870000D02*
X119341000Y-92130000D01*
X119381000Y-88990000D02*
X119381000Y-92010000D01*
X119421000Y-89122000D02*
X119421000Y-91878000D01*
X119461000Y-89270000D02*
X119461000Y-91730000D01*
X119501000Y-89438000D02*
X119501000Y-91562000D01*
X119541000Y-89638000D02*
X119541000Y-91362000D01*
X119581000Y-89901000D02*
X119581000Y-91099000D01*
X119620000Y-90500000D02*
G75*
G02*
X109380000Y-90500000I-5120000J0D01*
G01*
X109380000Y-90500000D02*
G75*
G02*
X119620000Y-90500000I5120000J0D01*
G01*
%TO.C,SW3*%
X75700000Y-90450000D02*
X77000000Y-90450000D01*
X75700000Y-91750000D02*
X75700000Y-90450000D01*
X76000000Y-97350000D02*
X76000000Y-92150000D01*
X78050000Y-91400000D02*
X87950000Y-91400000D01*
X87950000Y-98100000D02*
X78050000Y-98100000D01*
X90000000Y-92150000D02*
X90000000Y-97350000D01*
%TO.C,J1*%
X121347500Y-86380000D02*
X129387500Y-86380000D01*
X121347500Y-97120000D02*
X121347500Y-86380000D01*
X121347500Y-97120000D02*
X129387500Y-97120000D01*
X123981500Y-87753000D02*
X124024500Y-87796000D01*
X124220500Y-87513000D02*
X124263500Y-87556000D01*
X124967500Y-87188000D02*
X124967500Y-86380000D01*
X124967500Y-92120000D02*
X124967500Y-90812000D01*
X124967500Y-97120000D02*
X124967500Y-95880000D01*
X125967500Y-87188000D02*
X125967500Y-86380000D01*
X125967500Y-92120000D02*
X125967500Y-90812000D01*
X125967500Y-97120000D02*
X125967500Y-95880000D01*
X126671500Y-90444000D02*
X126714500Y-90487000D01*
X126910500Y-90205000D02*
X126953500Y-90248000D01*
X127267500Y-88457000D02*
X127267500Y-86380000D01*
X127267500Y-92120000D02*
X127267500Y-89543000D01*
X127267500Y-97120000D02*
X127267500Y-95880000D01*
X129387500Y-93700000D02*
X129387500Y-86380000D01*
X129387500Y-97120000D02*
X129387500Y-94300000D01*
X123587500Y-94554000D02*
G75*
G02*
X123587639Y-93445528I1880000J554000D01*
G01*
X124913500Y-92120000D02*
G75*
G02*
X126021972Y-92120139I554000J-1880000D01*
G01*
X126021500Y-95880000D02*
G75*
G02*
X124913028Y-95879861I-554000J1879990D01*
G01*
X127347500Y-93446000D02*
G75*
G02*
X127347361Y-94554472I-1879990J-554000D01*
G01*
X127427500Y-89000000D02*
G75*
G02*
X123507500Y-89000000I-1960000J0D01*
G01*
X123507500Y-89000000D02*
G75*
G02*
X127427500Y-89000000I1960000J0D01*
G01*
X129997500Y-94440000D02*
X129387500Y-94000000D01*
X129997500Y-93560000D01*
X129997500Y-94440000D01*
G36*
X129997500Y-94440000D02*
G01*
X129387500Y-94000000D01*
X129997500Y-93560000D01*
X129997500Y-94440000D01*
G37*
%TO.C,J5*%
X62880000Y-96620000D02*
X62880000Y-88580000D01*
X63688000Y-92000000D02*
X62880000Y-92000000D01*
X63688000Y-93000000D02*
X62880000Y-93000000D01*
X64013000Y-93747000D02*
X64056000Y-93704000D01*
X64253000Y-93986000D02*
X64296000Y-93943000D01*
X64957000Y-90700000D02*
X62880000Y-90700000D01*
X66705000Y-91057000D02*
X66748000Y-91014000D01*
X66944000Y-91296000D02*
X66987000Y-91253000D01*
X68620000Y-90700000D02*
X66043000Y-90700000D01*
X68620000Y-92000000D02*
X67312000Y-92000000D01*
X68620000Y-93000000D02*
X67312000Y-93000000D01*
X70200000Y-88580000D02*
X62880000Y-88580000D01*
X73620000Y-88580000D02*
X70800000Y-88580000D01*
X73620000Y-90700000D02*
X72380000Y-90700000D01*
X73620000Y-92000000D02*
X72380000Y-92000000D01*
X73620000Y-93000000D02*
X72380000Y-93000000D01*
X73620000Y-96620000D02*
X62880000Y-96620000D01*
X73620000Y-96620000D02*
X73620000Y-88580000D01*
X68620000Y-93054000D02*
G75*
G02*
X68620139Y-91945528I1880000J554000D01*
G01*
X69946000Y-90620000D02*
G75*
G02*
X71054472Y-90620139I554000J-1879990D01*
G01*
X71054000Y-94380000D02*
G75*
G02*
X69945528Y-94379861I-554000J1880000D01*
G01*
X72380000Y-91946000D02*
G75*
G02*
X72379861Y-93054472I-1879990J-554000D01*
G01*
X67460000Y-92500000D02*
G75*
G02*
X63540000Y-92500000I-1960000J0D01*
G01*
X63540000Y-92500000D02*
G75*
G02*
X67460000Y-92500000I1960000J0D01*
G01*
X70500000Y-88580000D02*
X70060000Y-87970000D01*
X70940000Y-87970000D01*
X70500000Y-88580000D01*
G36*
X70500000Y-88580000D02*
G01*
X70060000Y-87970000D01*
X70940000Y-87970000D01*
X70500000Y-88580000D01*
G37*
%TO.C,R4*%
X116130000Y-44230000D02*
X116130000Y-50770000D01*
X116130000Y-50770000D02*
X118870000Y-50770000D01*
X117500000Y-43460000D02*
X117500000Y-44230000D01*
X117500000Y-51540000D02*
X117500000Y-50770000D01*
X118870000Y-44230000D02*
X116130000Y-44230000D01*
X118870000Y-50770000D02*
X118870000Y-44230000D01*
%TO.C,D2*%
X89440000Y-31170000D02*
X91560000Y-31170000D01*
X89440000Y-32069000D02*
X89440000Y-31170000D01*
X89440000Y-33920000D02*
X89440000Y-32850000D01*
X89440000Y-36170000D02*
X91560000Y-36170000D01*
X89440000Y-36290000D02*
X89440000Y-36080000D01*
X89440000Y-36290000D02*
X91560000Y-36290000D01*
X91560000Y-32069000D02*
X91560000Y-31170000D01*
X91560000Y-33920000D02*
X91560000Y-32850000D01*
X91560000Y-36290000D02*
X91560000Y-36080000D01*
%TO.C,C10*%
X89430000Y-57230000D02*
X89430000Y-61770000D01*
X89445000Y-57230000D02*
X89430000Y-57230000D01*
X89445000Y-61770000D02*
X89430000Y-61770000D01*
X91570000Y-57230000D02*
X91555000Y-57230000D01*
X91570000Y-57230000D02*
X91570000Y-61770000D01*
X91570000Y-61770000D02*
X91555000Y-61770000D01*
%TO.C,JP1*%
X114170000Y-61255000D02*
X114170000Y-56115000D01*
X116830000Y-56115000D02*
X114170000Y-56115000D01*
X116830000Y-61255000D02*
X114170000Y-61255000D01*
X116830000Y-61255000D02*
X116830000Y-56115000D01*
X116830000Y-62525000D02*
X116830000Y-63855000D01*
X116830000Y-63855000D02*
X115500000Y-63855000D01*
%TO.C,D8*%
X107440000Y-31170000D02*
X109560000Y-31170000D01*
X107440000Y-32069000D02*
X107440000Y-31170000D01*
X107440000Y-33920000D02*
X107440000Y-32850000D01*
X107440000Y-36170000D02*
X109560000Y-36170000D01*
X107440000Y-36290000D02*
X107440000Y-36080000D01*
X107440000Y-36290000D02*
X109560000Y-36290000D01*
X109560000Y-32069000D02*
X109560000Y-31170000D01*
X109560000Y-33920000D02*
X109560000Y-32850000D01*
X109560000Y-36290000D02*
X109560000Y-36080000D01*
%TO.C,D6*%
X101440000Y-31170000D02*
X103560000Y-31170000D01*
X101440000Y-32069000D02*
X101440000Y-31170000D01*
X101440000Y-33920000D02*
X101440000Y-32850000D01*
X101440000Y-36170000D02*
X103560000Y-36170000D01*
X101440000Y-36290000D02*
X101440000Y-36080000D01*
X101440000Y-36290000D02*
X103560000Y-36290000D01*
X103560000Y-32069000D02*
X103560000Y-31170000D01*
X103560000Y-33920000D02*
X103560000Y-32850000D01*
X103560000Y-36290000D02*
X103560000Y-36080000D01*
%TO.C,D7*%
X104440000Y-31170000D02*
X106560000Y-31170000D01*
X104440000Y-32069000D02*
X104440000Y-31170000D01*
X104440000Y-33920000D02*
X104440000Y-32850000D01*
X104440000Y-36170000D02*
X106560000Y-36170000D01*
X104440000Y-36290000D02*
X104440000Y-36080000D01*
X104440000Y-36290000D02*
X106560000Y-36290000D01*
X106560000Y-32069000D02*
X106560000Y-31170000D01*
X106560000Y-33920000D02*
X106560000Y-32850000D01*
X106560000Y-36290000D02*
X106560000Y-36080000D01*
%TO.C,JP3*%
X125670000Y-52590000D02*
X127000000Y-52590000D01*
X125670000Y-53920000D02*
X125670000Y-52590000D01*
X125670000Y-55190000D02*
X125670000Y-60330000D01*
X125670000Y-55190000D02*
X128330000Y-55190000D01*
X125670000Y-60330000D02*
X128330000Y-60330000D01*
X128330000Y-55190000D02*
X128330000Y-60330000D01*
%TO.C,D4*%
X95440000Y-31170000D02*
X97560000Y-31170000D01*
X95440000Y-32069000D02*
X95440000Y-31170000D01*
X95440000Y-33920000D02*
X95440000Y-32850000D01*
X95440000Y-36170000D02*
X97560000Y-36170000D01*
X95440000Y-36290000D02*
X95440000Y-36080000D01*
X95440000Y-36290000D02*
X97560000Y-36290000D01*
X97560000Y-32069000D02*
X97560000Y-31170000D01*
X97560000Y-33920000D02*
X97560000Y-32850000D01*
X97560000Y-36290000D02*
X97560000Y-36080000D01*
%TO.C,D9*%
X110440000Y-31210000D02*
X112560000Y-31210000D01*
X110440000Y-32109000D02*
X110440000Y-31210000D01*
X110440000Y-33960000D02*
X110440000Y-32890000D01*
X110440000Y-36210000D02*
X112560000Y-36210000D01*
X110440000Y-36330000D02*
X110440000Y-36120000D01*
X110440000Y-36330000D02*
X112560000Y-36330000D01*
X112560000Y-32109000D02*
X112560000Y-31210000D01*
X112560000Y-33960000D02*
X112560000Y-32890000D01*
X112560000Y-36330000D02*
X112560000Y-36120000D01*
%TO.C,C1*%
X89920000Y-70287677D02*
X100080000Y-70287677D01*
X89920000Y-70327677D02*
X100080000Y-70327677D01*
X89920000Y-70367677D02*
X100080000Y-70367677D01*
X89921000Y-70247677D02*
X100079000Y-70247677D01*
X89922000Y-70207677D02*
X100078000Y-70207677D01*
X89923000Y-70167677D02*
X100077000Y-70167677D01*
X89925000Y-70127677D02*
X100075000Y-70127677D01*
X89927000Y-70087677D02*
X100073000Y-70087677D01*
X89930000Y-70047677D02*
X100070000Y-70047677D01*
X89932000Y-70007677D02*
X100068000Y-70007677D01*
X89935000Y-69967677D02*
X100065000Y-69967677D01*
X89938000Y-69927677D02*
X100062000Y-69927677D01*
X89942000Y-69887677D02*
X100058000Y-69887677D01*
X89946000Y-69847677D02*
X100054000Y-69847677D01*
X89950000Y-69807677D02*
X100050000Y-69807677D01*
X89955000Y-69767677D02*
X100045000Y-69767677D01*
X89960000Y-69727677D02*
X100040000Y-69727677D01*
X89965000Y-69687677D02*
X100035000Y-69687677D01*
X89970000Y-69646677D02*
X100030000Y-69646677D01*
X89976000Y-69606677D02*
X100024000Y-69606677D01*
X89982000Y-69566677D02*
X100018000Y-69566677D01*
X89989000Y-69526677D02*
X100011000Y-69526677D01*
X89996000Y-69486677D02*
X100004000Y-69486677D01*
X90003000Y-69446677D02*
X99997000Y-69446677D01*
X90010000Y-69406677D02*
X99990000Y-69406677D01*
X90018000Y-69366677D02*
X99982000Y-69366677D01*
X90026000Y-69326677D02*
X99974000Y-69326677D01*
X90035000Y-69286677D02*
X99965000Y-69286677D01*
X90044000Y-69246677D02*
X99956000Y-69246677D01*
X90053000Y-69206677D02*
X99947000Y-69206677D01*
X90062000Y-69166677D02*
X99938000Y-69166677D01*
X90072000Y-69126677D02*
X99928000Y-69126677D01*
X90082000Y-69086677D02*
X93759000Y-69086677D01*
X90093000Y-69046677D02*
X93759000Y-69046677D01*
X90103000Y-69006677D02*
X93759000Y-69006677D01*
X90115000Y-68966677D02*
X93759000Y-68966677D01*
X90126000Y-68926677D02*
X93759000Y-68926677D01*
X90138000Y-68886677D02*
X93759000Y-68886677D01*
X90150000Y-68846677D02*
X93759000Y-68846677D01*
X90163000Y-68806677D02*
X93759000Y-68806677D01*
X90176000Y-68766677D02*
X93759000Y-68766677D01*
X90189000Y-68726677D02*
X93759000Y-68726677D01*
X90203000Y-68686677D02*
X93759000Y-68686677D01*
X90217000Y-68646677D02*
X93759000Y-68646677D01*
X90232000Y-68606677D02*
X93759000Y-68606677D01*
X90246000Y-68566677D02*
X93759000Y-68566677D01*
X90262000Y-68526677D02*
X93759000Y-68526677D01*
X90277000Y-68486677D02*
X93759000Y-68486677D01*
X90293000Y-68446677D02*
X93759000Y-68446677D01*
X90310000Y-68406677D02*
X93759000Y-68406677D01*
X90326000Y-68366677D02*
X93759000Y-68366677D01*
X90343000Y-68326677D02*
X93759000Y-68326677D01*
X90361000Y-68286677D02*
X93759000Y-68286677D01*
X90379000Y-68246677D02*
X93759000Y-68246677D01*
X90397000Y-68206677D02*
X93759000Y-68206677D01*
X90416000Y-68166677D02*
X93759000Y-68166677D01*
X90436000Y-68126677D02*
X93759000Y-68126677D01*
X90455000Y-68086677D02*
X93759000Y-68086677D01*
X90475000Y-68046677D02*
X93759000Y-68046677D01*
X90496000Y-68006677D02*
X93759000Y-68006677D01*
X90517000Y-67966677D02*
X93759000Y-67966677D01*
X90538000Y-67926677D02*
X93759000Y-67926677D01*
X90560000Y-67886677D02*
X93759000Y-67886677D01*
X90583000Y-67846677D02*
X93759000Y-67846677D01*
X90605000Y-67806677D02*
X93759000Y-67806677D01*
X90629000Y-67766677D02*
X93759000Y-67766677D01*
X90653000Y-67726677D02*
X93759000Y-67726677D01*
X90677000Y-67686677D02*
X93759000Y-67686677D01*
X90702000Y-67646677D02*
X93759000Y-67646677D01*
X90727000Y-67606677D02*
X93759000Y-67606677D01*
X90753000Y-67566677D02*
X93759000Y-67566677D01*
X90779000Y-67526677D02*
X93759000Y-67526677D01*
X90806000Y-67486677D02*
X93759000Y-67486677D01*
X90834000Y-67446677D02*
X93759000Y-67446677D01*
X90862000Y-67406677D02*
X93759000Y-67406677D01*
X90890000Y-67366677D02*
X93759000Y-67366677D01*
X90920000Y-67326677D02*
X93759000Y-67326677D01*
X90950000Y-67286677D02*
X93759000Y-67286677D01*
X90980000Y-67246677D02*
X93759000Y-67246677D01*
X91011000Y-67206677D02*
X93759000Y-67206677D01*
X91043000Y-67166677D02*
X93759000Y-67166677D01*
X91075000Y-67126677D02*
X93759000Y-67126677D01*
X91108000Y-67086677D02*
X93759000Y-67086677D01*
X91142000Y-67046677D02*
X93759000Y-67046677D01*
X91176000Y-67006677D02*
X93759000Y-67006677D01*
X91211000Y-66966677D02*
X93759000Y-66966677D01*
X91247000Y-66926677D02*
X93759000Y-66926677D01*
X91284000Y-66886677D02*
X93759000Y-66886677D01*
X91321000Y-66846677D02*
X93759000Y-66846677D01*
X91360000Y-66806677D02*
X93759000Y-66806677D01*
X91399000Y-66766677D02*
X93759000Y-66766677D01*
X91439000Y-66726677D02*
X93759000Y-66726677D01*
X91480000Y-66686677D02*
X93759000Y-66686677D01*
X91522000Y-66646677D02*
X93759000Y-66646677D01*
X91564000Y-66606677D02*
X98436000Y-66606677D01*
X91608000Y-66566677D02*
X98392000Y-66566677D01*
X91625000Y-75347323D02*
X92625000Y-75347323D01*
X91653000Y-66526677D02*
X98347000Y-66526677D01*
X91699000Y-66486677D02*
X98301000Y-66486677D01*
X91746000Y-66446677D02*
X98254000Y-66446677D01*
X91794000Y-66406677D02*
X98206000Y-66406677D01*
X91844000Y-66366677D02*
X98156000Y-66366677D01*
X91894000Y-66326677D02*
X98106000Y-66326677D01*
X91946000Y-66286677D02*
X98054000Y-66286677D01*
X92000000Y-66246677D02*
X98000000Y-66246677D01*
X92055000Y-66206677D02*
X97945000Y-66206677D01*
X92111000Y-66166677D02*
X97889000Y-66166677D01*
X92125000Y-75847323D02*
X92125000Y-74847323D01*
X92170000Y-66126677D02*
X97830000Y-66126677D01*
X92230000Y-66086677D02*
X97770000Y-66086677D01*
X92291000Y-66046677D02*
X97709000Y-66046677D01*
X92355000Y-66006677D02*
X97645000Y-66006677D01*
X92421000Y-65966677D02*
X97579000Y-65966677D01*
X92490000Y-65926677D02*
X97510000Y-65926677D01*
X92561000Y-65886677D02*
X97439000Y-65886677D01*
X92635000Y-65846677D02*
X97365000Y-65846677D01*
X92711000Y-65806677D02*
X97289000Y-65806677D01*
X92791000Y-65766677D02*
X97209000Y-65766677D01*
X92875000Y-65726677D02*
X97125000Y-65726677D01*
X92963000Y-65686677D02*
X97037000Y-65686677D01*
X93056000Y-65646677D02*
X96944000Y-65646677D01*
X93154000Y-65606677D02*
X96846000Y-65606677D01*
X93258000Y-65566677D02*
X96742000Y-65566677D01*
X93370000Y-65526677D02*
X96630000Y-65526677D01*
X93490000Y-65486677D02*
X96510000Y-65486677D01*
X93622000Y-65446677D02*
X96378000Y-65446677D01*
X93770000Y-65406677D02*
X96230000Y-65406677D01*
X93938000Y-65366677D02*
X96062000Y-65366677D01*
X94138000Y-65326677D02*
X95862000Y-65326677D01*
X94401000Y-65286677D02*
X95599000Y-65286677D01*
X96241000Y-66646677D02*
X98478000Y-66646677D01*
X96241000Y-66686677D02*
X98520000Y-66686677D01*
X96241000Y-66726677D02*
X98561000Y-66726677D01*
X96241000Y-66766677D02*
X98601000Y-66766677D01*
X96241000Y-66806677D02*
X98640000Y-66806677D01*
X96241000Y-66846677D02*
X98679000Y-66846677D01*
X96241000Y-66886677D02*
X98716000Y-66886677D01*
X96241000Y-66926677D02*
X98753000Y-66926677D01*
X96241000Y-66966677D02*
X98789000Y-66966677D01*
X96241000Y-67006677D02*
X98824000Y-67006677D01*
X96241000Y-67046677D02*
X98858000Y-67046677D01*
X96241000Y-67086677D02*
X98892000Y-67086677D01*
X96241000Y-67126677D02*
X98925000Y-67126677D01*
X96241000Y-67166677D02*
X98957000Y-67166677D01*
X96241000Y-67206677D02*
X98989000Y-67206677D01*
X96241000Y-67246677D02*
X99020000Y-67246677D01*
X96241000Y-67286677D02*
X99050000Y-67286677D01*
X96241000Y-67326677D02*
X99080000Y-67326677D01*
X96241000Y-67366677D02*
X99110000Y-67366677D01*
X96241000Y-67406677D02*
X99138000Y-67406677D01*
X96241000Y-67446677D02*
X99166000Y-67446677D01*
X96241000Y-67486677D02*
X99194000Y-67486677D01*
X96241000Y-67526677D02*
X99221000Y-67526677D01*
X96241000Y-67566677D02*
X99247000Y-67566677D01*
X96241000Y-67606677D02*
X99273000Y-67606677D01*
X96241000Y-67646677D02*
X99298000Y-67646677D01*
X96241000Y-67686677D02*
X99323000Y-67686677D01*
X96241000Y-67726677D02*
X99347000Y-67726677D01*
X96241000Y-67766677D02*
X99371000Y-67766677D01*
X96241000Y-67806677D02*
X99395000Y-67806677D01*
X96241000Y-67846677D02*
X99417000Y-67846677D01*
X96241000Y-67886677D02*
X99440000Y-67886677D01*
X96241000Y-67926677D02*
X99462000Y-67926677D01*
X96241000Y-67966677D02*
X99483000Y-67966677D01*
X96241000Y-68006677D02*
X99504000Y-68006677D01*
X96241000Y-68046677D02*
X99525000Y-68046677D01*
X96241000Y-68086677D02*
X99545000Y-68086677D01*
X96241000Y-68126677D02*
X99564000Y-68126677D01*
X96241000Y-68166677D02*
X99584000Y-68166677D01*
X96241000Y-68206677D02*
X99603000Y-68206677D01*
X96241000Y-68246677D02*
X99621000Y-68246677D01*
X96241000Y-68286677D02*
X99639000Y-68286677D01*
X96241000Y-68326677D02*
X99657000Y-68326677D01*
X96241000Y-68366677D02*
X99674000Y-68366677D01*
X96241000Y-68406677D02*
X99690000Y-68406677D01*
X96241000Y-68446677D02*
X99707000Y-68446677D01*
X96241000Y-68486677D02*
X99723000Y-68486677D01*
X96241000Y-68526677D02*
X99738000Y-68526677D01*
X96241000Y-68566677D02*
X99754000Y-68566677D01*
X96241000Y-68606677D02*
X99768000Y-68606677D01*
X96241000Y-68646677D02*
X99783000Y-68646677D01*
X96241000Y-68686677D02*
X99797000Y-68686677D01*
X96241000Y-68726677D02*
X99811000Y-68726677D01*
X96241000Y-68766677D02*
X99824000Y-68766677D01*
X96241000Y-68806677D02*
X99837000Y-68806677D01*
X96241000Y-68846677D02*
X99850000Y-68846677D01*
X96241000Y-68886677D02*
X99862000Y-68886677D01*
X96241000Y-68926677D02*
X99874000Y-68926677D01*
X96241000Y-68966677D02*
X99885000Y-68966677D01*
X96241000Y-69006677D02*
X99897000Y-69006677D01*
X96241000Y-69046677D02*
X99907000Y-69046677D01*
X96241000Y-69086677D02*
X99918000Y-69086677D01*
X100120000Y-70367677D02*
G75*
G02*
X89880000Y-70367677I-5120000J0D01*
G01*
X89880000Y-70367677D02*
G75*
G02*
X100120000Y-70367677I5120000J0D01*
G01*
%TO.C,C7*%
X99230000Y-96930000D02*
X99230000Y-96945000D01*
X99230000Y-96930000D02*
X103770000Y-96930000D01*
X99230000Y-99055000D02*
X99230000Y-99070000D01*
X99230000Y-99070000D02*
X103770000Y-99070000D01*
X103770000Y-96930000D02*
X103770000Y-96945000D01*
X103770000Y-99055000D02*
X103770000Y-99070000D01*
%TO.C,C5*%
X117530000Y-72945000D02*
X117530000Y-72630000D01*
X117530000Y-75370000D02*
X117530000Y-75055000D01*
X122470000Y-72630000D02*
X117530000Y-72630000D01*
X122470000Y-72945000D02*
X122470000Y-72630000D01*
X122470000Y-75370000D02*
X117530000Y-75370000D01*
X122470000Y-75370000D02*
X122470000Y-75055000D01*
%TO.C,D5*%
X98440000Y-31170000D02*
X100560000Y-31170000D01*
X98440000Y-32069000D02*
X98440000Y-31170000D01*
X98440000Y-33920000D02*
X98440000Y-32850000D01*
X98440000Y-36170000D02*
X100560000Y-36170000D01*
X98440000Y-36290000D02*
X98440000Y-36080000D01*
X98440000Y-36290000D02*
X100560000Y-36290000D01*
X100560000Y-32069000D02*
X100560000Y-31170000D01*
X100560000Y-33920000D02*
X100560000Y-32850000D01*
X100560000Y-36290000D02*
X100560000Y-36080000D01*
%TO.C,D1*%
X86440000Y-31170000D02*
X88560000Y-31170000D01*
X86440000Y-32069000D02*
X86440000Y-31170000D01*
X86440000Y-33920000D02*
X86440000Y-32850000D01*
X86440000Y-36170000D02*
X88560000Y-36170000D01*
X86440000Y-36290000D02*
X86440000Y-36080000D01*
X86440000Y-36290000D02*
X88560000Y-36290000D01*
X88560000Y-32069000D02*
X88560000Y-31170000D01*
X88560000Y-33920000D02*
X88560000Y-32850000D01*
X88560000Y-36290000D02*
X88560000Y-36080000D01*
%TD*%
M02*
