%TF.GenerationSoftware,KiCad,Pcbnew,9.0.0*%
%TF.CreationDate,2025-04-10T20:17:47-05:00*%
%TF.ProjectId,SN76489AN_soundboard1,534e3736-3438-4394-914e-5f736f756e64,rev?*%
%TF.SameCoordinates,Original*%
%TF.FileFunction,Legend,Bot*%
%TF.FilePolarity,Positive*%
%FSLAX46Y46*%
G04 Gerber Fmt 4.6, Leading zero omitted, Abs format (unit mm)*
G04 Created by KiCad (PCBNEW 9.0.0) date 2025-04-10 20:17:47*
%MOMM*%
%LPD*%
G01*
G04 APERTURE LIST*
%ADD10C,0.150000*%
%ADD11C,0.120000*%
G04 APERTURE END LIST*
D10*
X89063333Y-37564819D02*
X89063333Y-38279104D01*
X89063333Y-38279104D02*
X89110952Y-38421961D01*
X89110952Y-38421961D02*
X89206190Y-38517200D01*
X89206190Y-38517200D02*
X89349047Y-38564819D01*
X89349047Y-38564819D02*
X89444285Y-38564819D01*
X88634761Y-37660057D02*
X88587142Y-37612438D01*
X88587142Y-37612438D02*
X88491904Y-37564819D01*
X88491904Y-37564819D02*
X88253809Y-37564819D01*
X88253809Y-37564819D02*
X88158571Y-37612438D01*
X88158571Y-37612438D02*
X88110952Y-37660057D01*
X88110952Y-37660057D02*
X88063333Y-37755295D01*
X88063333Y-37755295D02*
X88063333Y-37850533D01*
X88063333Y-37850533D02*
X88110952Y-37993390D01*
X88110952Y-37993390D02*
X88682380Y-38564819D01*
X88682380Y-38564819D02*
X88063333Y-38564819D01*
D11*
%TO.C,RV1*%
X65942500Y-67129000D02*
X65942500Y-66370000D01*
X65942500Y-69629000D02*
X65942500Y-68870000D01*
X67442500Y-63030000D02*
X71307500Y-63030000D01*
X67442500Y-64630000D02*
X67442500Y-63030000D01*
X67442500Y-72970000D02*
X67442500Y-71371000D01*
X67442500Y-72970000D02*
X71307500Y-72970000D01*
X77812500Y-63030000D02*
X79682500Y-63030000D01*
X77812500Y-72970000D02*
X79682500Y-72970000D01*
X79682500Y-72970000D02*
X79682500Y-63030000D01*
%TO.C,J2*%
X82630000Y-39050000D02*
X82630000Y-40380000D01*
X82630000Y-41650000D02*
X82630000Y-89970000D01*
X83960000Y-39050000D02*
X82630000Y-39050000D01*
X85230000Y-39050000D02*
X85230000Y-41650000D01*
X85230000Y-41650000D02*
X82630000Y-41650000D01*
X87830000Y-39050000D02*
X85230000Y-39050000D01*
X87830000Y-39050000D02*
X87830000Y-89970000D01*
X87830000Y-89970000D02*
X82630000Y-89970000D01*
%TD*%
M02*
