M48
; DRILL file {KiCad 9.0.0} date 2025-04-10T20:23:46-0500
; FORMAT={-:-/ absolute / metric / decimal}
; #@! TF.CreationDate,2025-04-10T20:23:46-05:00
; #@! TF.GenerationSoftware,Kicad,Pcbnew,9.0.0
; #@! TF.FileFunction,Plated,1,2,PTH
FMAT,2
METRIC
; #@! TA.AperFunction,Plated,PTH,ViaDrill
T1C0.300
; #@! TA.AperFunction,Plated,PTH,ComponentDrill
T2C0.800
; #@! TA.AperFunction,Plated,PTH,ComponentDrill
T3C0.900
; #@! TA.AperFunction,Plated,PTH,ComponentDrill
T4C1.000
; #@! TA.AperFunction,Plated,PTH,ComponentDrill
T5C1.100
; #@! TA.AperFunction,Plated,PTH,ComponentDrill
T6C1.200
; #@! TA.AperFunction,Plated,PTH,ComponentDrill
T7C1.300
%
G90
G05
T1
X81.5Y-59.5
T2
X63.26Y-41.19
X63.26Y-48.81
X70.88Y-41.19
X70.88Y-48.81
X78.5Y-41.19
X78.5Y-41.19
X78.5Y-48.81
X78.5Y-48.81
X90.5Y-57.0
X90.5Y-62.0
X90.5Y-83.5
X91.0Y-88.5
X91.545Y-40.685
X91.545Y-48.305
X93.61Y-55.685
X93.61Y-63.305
X94.085Y-40.685
X94.085Y-48.305
X95.5Y-83.5
X96.0Y-88.5
X96.15Y-55.685
X96.15Y-63.305
X96.625Y-40.685
X96.625Y-48.305
X98.69Y-55.685
X98.69Y-63.305
X98.84Y-95.0
X98.88Y-83.69
X98.88Y-86.23
X98.88Y-88.77
X98.88Y-91.31
X99.0Y-98.0
X99.165Y-40.685
X99.165Y-48.305
X100.92Y-66.5
X101.23Y-55.685
X101.23Y-63.305
X101.705Y-40.685
X101.705Y-48.305
X103.77Y-55.685
X103.77Y-63.305
X103.795Y-78.0
X104.0Y-98.0
X104.245Y-40.685
X104.245Y-48.305
X106.295Y-78.0
X106.31Y-55.685
X106.31Y-63.305
X106.5Y-83.69
X106.5Y-86.23
X106.5Y-88.77
X106.5Y-91.31
X106.785Y-40.685
X106.785Y-48.305
X108.85Y-55.685
X108.85Y-63.305
X109.0Y-95.0
X109.325Y-40.685
X109.325Y-48.305
X111.08Y-66.5
X111.39Y-55.685
X111.39Y-63.305
X111.865Y-40.685
X111.865Y-48.305
X113.0Y-69.42
X113.0Y-79.58
X117.5Y-42.42
X117.5Y-52.58
X117.5Y-74.0
X120.5Y-61.5
X120.5Y-66.5
X122.5Y-74.0
T3
X79.0Y-93.5
X83.0Y-93.5
X87.0Y-93.5
X87.5Y-32.46
X87.5Y-35.0
X90.5Y-32.46
X90.5Y-35.0
X93.5Y-32.46
X93.5Y-35.0
X96.5Y-32.46
X96.5Y-35.0
X99.5Y-32.46
X99.5Y-35.0
X102.5Y-32.46
X102.5Y-35.0
X105.5Y-32.46
X105.5Y-35.0
X108.5Y-32.46
X108.5Y-35.0
X111.5Y-32.5
X111.5Y-35.04
X114.5Y-32.5
X114.5Y-35.04
T4
X65.062Y-64.25
X65.062Y-68.0
X65.062Y-71.75
X83.96Y-40.38
X83.96Y-42.92
X83.96Y-45.46
X83.96Y-48.0
X83.96Y-50.54
X83.96Y-53.08
X83.96Y-55.62
X83.96Y-58.16
X83.96Y-60.7
X83.96Y-63.24
X83.96Y-65.78
X83.96Y-68.32
X83.96Y-70.86
X83.96Y-73.4
X83.96Y-75.94
X83.96Y-78.48
X83.96Y-81.02
X83.96Y-83.56
X83.96Y-86.1
X83.96Y-88.64
X86.5Y-40.38
X86.5Y-42.92
X86.5Y-45.46
X86.5Y-48.0
X86.5Y-50.54
X86.5Y-53.08
X86.5Y-55.62
X86.5Y-58.16
X86.5Y-60.7
X86.5Y-63.24
X86.5Y-65.78
X86.5Y-68.32
X86.5Y-70.86
X86.5Y-73.4
X86.5Y-75.94
X86.5Y-78.48
X86.5Y-81.02
X86.5Y-83.56
X86.5Y-86.1
X86.5Y-88.64
X93.0Y-79.0
X95.0Y-67.868
X95.0Y-72.868
X98.0Y-79.0
X112.0Y-90.5
X115.5Y-57.445
X115.5Y-59.985
X115.5Y-62.525
X117.0Y-90.5
X118.0Y-32.475
X118.0Y-35.015
X118.0Y-37.555
X127.0Y-53.92
X127.0Y-56.46
X127.0Y-59.0
X127.0Y-66.0
T5
X95.42Y-52.0
X105.58Y-52.0
T6
X77.0Y-91.75
X77.0Y-97.75
X89.0Y-91.75
X89.0Y-97.75
T7
X65.5Y-92.5
X70.5Y-92.5
X125.468Y-89.0
X125.468Y-94.0
T4
G00X125.0Y-36.1
M15
G01X126.0Y-36.1
M16
G05
G00X125.0Y-42.2
M15
G01X126.0Y-42.2
M16
G05
G00X125.0Y-47.7
M15
G01X126.0Y-47.7
M16
G05
G00X127.0Y-38.5
M15
G01X128.0Y-38.5
M16
G05
G00X127.0Y-44.0
M15
G01X128.0Y-44.0
M16
G05
M30
